<?xml version="1.0" standalone="no"?>
<!DOCTYPE svg PUBLIC "-//W3C//DTD SVG 20010904//EN"
 "http://www.w3.org/TR/2001/REC-SVG-20010904/DTD/svg10.dtd">
<svg version="1.0" xmlns="http://www.w3.org/2000/svg"
 width="1536.000000pt" height="2048.000000pt" viewBox="0 0 1536.000000 2048.000000"
 preserveAspectRatio="xMidYMid meet">

<g transform="translate(0.000000,2048.000000) scale(0.100000,-0.100000)"
fill="#000000" stroke="none">
<path d="M6535 17700 c-3 -5 -31 -8 -63 -6 -31 2 -66 -1 -77 -7 -11 -6 -36
-14 -55 -18 -76 -17 -156 -42 -169 -52 -19 -16 -51 -35 -83 -49 -19 -9 -28
-20 -28 -36 0 -19 -4 -23 -20 -19 -12 3 -20 0 -20 -7 0 -30 -32 -75 -60 -85
-17 -5 -33 -17 -36 -26 -3 -8 -14 -15 -24 -15 -10 0 -29 -15 -43 -34 -25 -33
-51 -43 -124 -51 -18 -2 -33 0 -33 5 0 6 4 10 8 10 4 0 13 14 19 30 10 26 9
32 -7 40 -26 14 -44 12 -79 -7 -26 -15 -33 -16 -40 -5 -7 12 -13 11 -38 -2
-39 -19 -73 -17 -99 6 -21 19 -21 19 -27 -1 -2 -10 0 -24 6 -30 16 -16 1 -13
-41 8 -20 10 -48 17 -62 15 -24 -3 -23 -2 11 29 20 17 41 42 47 54 12 21 11
21 -17 7 -16 -8 -41 -30 -56 -49 -14 -19 -40 -42 -58 -51 -18 -9 -35 -22 -39
-28 -5 -8 -12 -8 -25 2 -38 26 -67 34 -86 22 -20 -12 -81 11 -90 35 -5 12
-100 44 -175 60 -18 4 -45 13 -60 21 -36 19 -44 18 -72 -8 -16 -15 -34 -21
-53 -19 -16 1 -42 -2 -58 -8 -16 -6 -42 -16 -59 -22 -16 -6 -30 -17 -30 -24 0
-7 -7 -18 -15 -25 -26 -21 7 -41 64 -39 30 2 56 -3 66 -11 19 -16 98 -31 105
-20 3 5 16 2 30 -5 l25 -14 -25 -1 c-14 0 -37 -6 -51 -14 -44 -23 -71 -28
-194 -41 -52 -5 -73 -12 -84 -26 -17 -24 -32 -24 -60 0 -15 14 -18 20 -9 24 9
3 7 7 -6 12 -10 5 -21 3 -25 -3 -9 -15 -33 -17 -64 -4 -16 7 -43 12 -62 12
-25 0 -35 5 -40 20 -5 16 -10 18 -25 10 -26 -14 -73 -13 -89 3 -6 6 -24 12
-39 12 -24 0 -27 4 -30 38 -3 40 -15 45 -46 22 -11 -8 -30 -15 -43 -15 -13 0
-36 -8 -50 -17 -19 -13 -28 -14 -31 -5 -6 19 -29 14 -35 -8 -5 -21 -36 -27
-53 -10 -11 11 -70 -6 -92 -27 -8 -7 -25 -10 -43 -6 -22 4 -38 0 -60 -16 -25
-19 -35 -21 -59 -13 -26 10 -29 8 -38 -17 -6 -18 -20 -31 -36 -35 -14 -3 -40
-15 -56 -25 l-30 -18 25 -13 c19 -10 22 -16 14 -27 -30 -35 -79 5 -87 72 l-4
42 -24 -24 c-13 -13 -28 -21 -34 -18 -5 3 -9 -5 -8 -17 0 -13 0 -32 -1 -43 -1
-17 -3 -18 -12 -5 -7 11 -8 3 -4 -27 5 -34 3 -44 -9 -49 -10 -4 -16 -18 -16
-36 0 -27 -2 -30 -25 -24 -14 4 -25 3 -24 -1 5 -27 -4 -54 -26 -79 -14 -16
-38 -50 -52 -76 -28 -52 -37 -56 -71 -32 -21 14 -23 14 -34 -10 -6 -15 -18
-26 -25 -26 -8 0 -12 -4 -9 -9 4 -5 -7 -12 -24 -16 -28 -6 -29 -9 -25 -46 5
-36 4 -39 -20 -39 -20 0 -27 -6 -31 -30 -4 -16 -8 -30 -11 -30 -13 0 -53 34
-53 46 0 9 -10 11 -36 7 -27 -4 -35 -3 -34 8 4 28 0 39 -15 39 -9 0 -18 -6
-21 -14 -7 -18 -34 -9 -34 10 0 14 -41 46 -56 43 -23 -4 -34 3 -34 20 0 11 -4
22 -10 26 -12 7 -50 -30 -50 -49 0 -21 -24 -38 -37 -25 -8 8 -13 7 -19 -2 -4
-7 -3 -14 4 -17 8 -2 3 -15 -12 -35 -13 -18 -27 -52 -31 -77 -4 -25 -10 -49
-13 -55 -9 -14 -2 -168 8 -180 4 -5 10 -21 12 -35 2 -18 8 -24 23 -22 15 2 17
1 6 -7 -10 -6 -12 -19 -8 -42 15 -78 17 -74 -38 -71 -40 2 -55 -1 -68 -16 -16
-17 -16 -22 2 -73 19 -53 20 -54 30 -26 7 17 18 27 31 27 32 0 26 -52 -11 -95
-36 -40 -32 -60 5 -26 18 17 30 20 52 15 35 -8 79 -50 63 -60 -8 -4 -7 -9 2
-15 9 -6 3 -7 -16 -4 -16 2 -39 5 -50 7 -15 2 -20 -3 -20 -24 -1 -17 -14 -40
-38 -63 -32 -32 -41 -35 -77 -30 -37 4 -44 2 -75 -32 -19 -21 -30 -40 -24 -43
27 -17 4 -117 -25 -107 -5 2 -19 -14 -29 -34 -17 -35 -17 -41 -4 -69 l15 -30
-59 -51 c-32 -29 -59 -55 -59 -59 0 -4 20 -3 45 3 25 6 48 7 52 3 7 -7 -52
-66 -65 -66 -4 0 -13 -13 -19 -30 -6 -16 -20 -33 -30 -36 -10 -4 -44 -34 -76
-68 -44 -46 -56 -66 -51 -81 16 -53 16 -78 0 -87 -9 -5 -16 -16 -16 -25 0 -15
2 -15 18 0 18 16 18 15 14 -13 -2 -17 -8 -30 -13 -30 -5 0 -9 -7 -9 -15 0 -8
7 -15 15 -15 8 0 15 7 15 15 0 8 7 15 15 15 19 0 20 -16 2 -27 -8 -4 -16 -16
-20 -25 -7 -19 -27 -25 -27 -8 0 17 -29 11 -38 -7 -5 -10 -10 -36 -11 -58 -2
-22 -8 -43 -13 -46 -6 -4 -8 -13 -5 -20 2 -8 -5 -24 -16 -36 -25 -28 -8 -30
23 -3 12 11 27 17 31 14 14 -9 10 -61 -6 -78 -21 -21 -19 -53 5 -61 11 -3 20
-15 20 -25 0 -10 5 -22 11 -25 6 -4 8 -13 5 -21 -3 -7 1 -26 9 -41 21 -40 19
-80 -4 -88 -16 -5 -18 -13 -14 -44 3 -21 1 -41 -5 -45 -9 -6 6 -67 21 -82 3
-3 -1 -17 -10 -30 -20 -32 -13 -77 25 -152 16 -31 32 -74 36 -94 4 -21 12 -41
19 -45 15 -10 47 -70 47 -89 0 -9 4 -13 9 -10 5 3 25 -11 45 -31 33 -35 34
-38 19 -55 -15 -17 -15 -19 2 -38 10 -11 24 -20 31 -20 7 0 16 -10 20 -22 3
-12 13 -28 21 -36 23 -24 11 -55 -29 -74 -47 -22 -60 -41 -21 -32 15 4 36 11
46 16 10 5 21 7 24 4 6 -5 -35 -67 -52 -78 -66 -41 -115 -98 -85 -98 6 0 10 4
10 9 0 12 58 42 64 33 2 -4 7 -24 11 -45 4 -20 11 -37 16 -37 5 0 9 -9 9 -20
0 -13 -7 -20 -18 -20 -20 0 -42 -38 -42 -72 l0 -22 20 22 c29 31 33 28 27 -17
-4 -33 -2 -40 15 -44 21 -6 21 -11 2 -104 -4 -22 -2 -33 5 -33 6 0 11 -9 11
-21 0 -31 18 -59 35 -53 11 5 15 -2 15 -25 0 -23 4 -31 18 -31 16 0 21 -13 30
-81 7 -44 18 -86 25 -94 8 -7 17 -33 21 -56 4 -25 15 -48 26 -56 11 -8 20 -23
20 -33 0 -10 8 -23 17 -29 13 -7 17 -20 15 -48 -2 -21 7 -65 19 -98 12 -33 26
-91 33 -130 10 -61 14 -70 34 -73 17 -3 22 -10 22 -31 0 -16 7 -34 15 -41 8
-7 15 -19 15 -26 0 -8 6 -14 13 -14 14 0 53 -77 44 -87 -4 -3 2 -13 13 -20 14
-10 19 -21 15 -34 -4 -11 2 -27 14 -41 21 -22 23 -30 24 -128 0 -43 5 -59 24
-77 14 -14 23 -36 23 -53 0 -17 9 -39 20 -50 14 -14 18 -28 14 -48 -4 -22 -1
-34 14 -48 34 -32 70 -90 77 -125 10 -50 48 -129 62 -129 10 0 10 -6 1 -25 -9
-21 -8 -32 9 -63 11 -20 23 -49 26 -63 5 -19 13 -25 29 -25 19 1 24 -5 26 -31
2 -21 9 -33 18 -33 8 0 19 -12 24 -27 19 -51 65 -138 78 -146 6 -4 12 -14 12
-22 0 -7 11 -27 25 -43 14 -17 25 -32 25 -35 0 -12 52 -83 73 -99 12 -10 16
-18 10 -18 -7 0 -13 -4 -13 -9 0 -4 11 -6 25 -3 21 4 27 -1 40 -32 18 -42 81
-133 96 -138 6 -2 11 -11 12 -20 2 -9 8 -22 14 -29 22 -29 34 -60 26 -72 -13
-20 -12 -37 2 -37 7 0 22 -18 32 -40 11 -24 27 -43 41 -46 12 -3 22 -12 22
-20 0 -8 18 -25 40 -39 22 -14 40 -29 40 -34 0 -5 26 -15 58 -22 31 -7 60 -14
65 -15 4 -1 11 -2 15 -3 13 -2 31 -92 25 -124 -3 -15 0 -34 8 -43 12 -14 14
-14 25 1 18 24 34 10 34 -30 0 -28 -3 -32 -20 -28 -13 3 -20 0 -20 -8 0 -24
-133 -68 -145 -49 -7 12 -62 10 -88 -3 -27 -13 -382 -23 -652 -18 -93 2 -141
-1 -143 -8 -2 -6 -9 -8 -15 -4 -16 10 -106 13 -112 3 -5 -8 -70 -6 -103 4 -14
5 -22 3 -22 -4 0 -7 -8 -9 -21 -5 -21 7 -325 18 -432 15 -32 0 -73 4 -92 9
-22 6 -37 6 -41 0 -4 -6 -11 -6 -19 1 -8 7 -19 9 -25 5 -5 -3 -14 -4 -19 -1
-5 3 -76 9 -158 12 -174 6 -163 6 -188 1 -11 -2 -26 0 -32 6 -9 6 -26 6 -53
-1 -21 -5 -42 -7 -45 -4 -11 11 -219 10 -232 0 -9 -7 -13 -7 -13 0 0 7 -10 8
-30 2 -16 -5 -42 -6 -57 -4 -50 8 -467 10 -491 2 -15 -5 -21 -4 -17 3 5 7 -6
8 -32 5 -57 -8 -121 -7 -180 2 -29 5 -70 7 -90 5 -21 -2 -76 -5 -123 -6 l-85
-2 -3 -4847 -2 -4848 7680 0 7680 0 0 1453 c0 1116 -3 1459 -12 1479 -9 18
-25 29 -58 37 -35 9 -60 26 -100 66 -49 49 -52 56 -47 89 4 27 2 36 -8 36 -8
0 -17 -4 -20 -10 -4 -6 1 -7 11 -3 14 5 15 3 4 -17 -11 -21 -13 -21 -22 -7 -5
10 -15 17 -22 17 -22 0 -46 34 -39 58 5 22 -10 31 -22 12 -11 -18 -25 -10 -25
14 0 14 -4 28 -10 31 -6 4 -10 58 -10 130 0 115 1 124 20 130 11 3 20 14 20
24 0 9 6 23 13 30 10 11 9 12 -3 5 -43 -24 -50 -17 -50 50 0 56 3 66 20 71 11
3 20 13 20 22 0 14 -3 14 -20 -2 -19 -18 -20 -17 -20 4 0 24 16 58 37 79 20
21 16 34 -8 22 -11 -7 -22 -10 -24 -8 -9 10 -12 308 -3 314 6 4 7 23 3 48 -3
22 -8 69 -11 104 -6 62 -6 62 21 62 16 0 24 4 19 11 -3 6 -15 9 -25 6 -14 -4
-19 0 -20 16 -4 118 -3 162 6 165 19 6 31 -27 17 -48 -17 -27 -16 -28 19 -21
29 6 32 10 33 43 1 20 -1 36 -4 36 -3 0 -19 3 -36 7 -41 9 -44 24 -44 230 0
121 3 165 13 168 10 4 10 6 0 6 -8 1 -13 14 -13 33 0 25 3 29 12 20 15 -15 55
-16 64 -1 3 6 24 9 48 7 45 -5 80 11 98 45 8 16 1 13 -27 -10 -33 -27 -41 -30
-66 -21 -23 8 -35 7 -54 -6 -30 -20 -42 -20 -61 -1 -13 13 -14 92 -8 602 3
324 5 605 5 625 -1 27 3 38 16 41 17 4 17 5 1 6 -17 1 -18 16 -14 199 3 108 4
357 4 552 -1 195 -1 630 -2 967 -1 336 -5 615 -9 619 -4 4 -8 -33 -9 -82 -1
-49 -3 -69 -5 -44 -3 24 -9 50 -14 56 -5 6 -13 74 -18 152 -6 77 -17 167 -26
201 -8 33 -14 64 -13 68 4 15 -13 103 -20 103 -14 0 -39 56 -32 74 5 15 8 15
17 4 14 -17 53 -122 65 -173 24 -106 26 -110 27 -87 2 44 -40 187 -75 253 -83
157 -229 245 -437 263 -57 5 -55 4 30 -13 89 -19 197 -62 188 -74 -3 -4 -2 -5
2 -2 3 3 12 0 20 -7 11 -9 12 -7 7 8 -7 18 -7 18 13 2 11 -10 24 -18 29 -18
12 0 74 -62 74 -74 0 -4 -7 -5 -16 -2 -15 6 -15 4 -3 -11 12 -15 12 -16 -3
-10 -14 5 -16 0 -13 -31 2 -20 6 -49 10 -64 5 -19 3 -28 -5 -28 -7 0 -10 -7
-6 -15 9 -24 -20 -18 -51 11 -16 14 -35 23 -45 21 -10 -3 -18 -1 -18 4 0 5 -8
9 -17 9 -24 0 -83 23 -83 32 0 4 -9 8 -21 8 -15 0 -19 5 -14 19 4 14 0 20 -20
23 -14 3 -28 1 -31 -3 -9 -15 -26 -10 -20 6 6 18 -2 22 -55 28 -43 5 -62 15
-54 28 4 5 -3 9 -13 9 -11 0 -22 -7 -26 -15 -8 -22 -33 -18 -39 6 -5 19 -11
21 -47 15 -27 -4 -39 -3 -35 4 3 5 -3 10 -14 10 -12 0 -21 -7 -21 -15 0 -8 7
-15 16 -15 12 0 15 -7 12 -24 -3 -15 0 -27 8 -30 16 -6 19 -36 4 -36 -21 0 -9
-30 13 -31 40 -1 72 -9 75 -19 2 -6 13 -10 24 -10 17 0 18 -3 8 -15 -15 -18
-31 -20 -28 -2 2 6 -4 13 -12 13 -8 1 -19 3 -25 4 -5 2 -14 4 -20 5 -39 10
-55 20 -55 34 0 30 -44 63 -74 55 -15 -3 -23 -11 -19 -17 4 -7 0 -8 -11 -4
-10 4 -21 7 -25 7 -4 0 -7 19 -7 43 1 38 -2 42 -24 45 -22 2 -23 1 -7 -8 9 -6
17 -19 17 -28 0 -14 -2 -14 -9 -3 -14 21 -44 5 -36 -19 3 -11 3 -20 -2 -20
-12 0 -35 16 -34 24 3 22 -3 26 -41 27 -24 1 -35 3 -25 6 9 2 17 8 17 13 0 17
-20 21 -64 15 -32 -5 -43 -11 -39 -21 3 -8 11 -14 19 -14 8 0 14 -7 14 -16 0
-11 -6 -14 -22 -9 -18 6 -20 4 -13 -11 4 -11 13 -47 20 -82 11 -54 11 -64 -2
-69 -21 -8 -29 5 -16 27 10 15 8 26 -11 62 -13 24 -29 42 -36 40 -7 -2 -17 3
-21 10 -6 9 -9 10 -9 1 0 -7 8 -16 17 -22 15 -8 16 -12 3 -35 -7 -14 -16 -26
-20 -26 -3 0 -14 24 -24 53 -19 54 -61 127 -74 127 -10 0 -9 -132 2 -148 5 -9
2 -18 -10 -26 -9 -7 -14 -18 -10 -24 9 -15 -14 -26 -27 -13 -9 9 -9 14 0 19
19 12 -5 85 -25 77 -12 -4 -12 -2 1 18 17 27 12 74 -11 97 -14 13 -15 12 -9
-10 11 -48 14 -65 10 -52 -3 6 -9 12 -14 12 -15 0 -24 -33 -11 -38 7 -2 10 -7
8 -11 -3 -4 2 -32 10 -62 9 -30 15 -67 15 -82 -1 -16 2 -26 6 -24 5 3 8 -9 7
-25 0 -17 2 -48 6 -69 8 -41 -1 -51 -47 -54 -21 -1 -24 2 -23 20 1 3 -7 19
-17 35 -13 23 -22 28 -38 24 -17 -6 -18 -5 -8 8 14 16 8 28 -13 28 -6 0 -14
-11 -16 -25 -4 -19 -1 -25 13 -25 10 0 21 -4 24 -10 4 -6 -7 -10 -24 -10 -23
0 -31 5 -31 18 0 9 -8 22 -19 29 -19 12 -61 7 -61 -7 0 -5 -6 -10 -12 -13 -7
-2 -2 -2 12 0 18 3 22 1 14 -7 -6 -6 -21 -12 -33 -13 -20 -1 -21 -2 -5 -14 13
-9 14 -16 6 -26 -7 -8 -9 -17 -5 -20 3 -4 -1 -7 -11 -7 -9 0 -15 -4 -11 -10 3
-5 12 -7 20 -3 8 3 15 0 15 -5 0 -7 19 -10 47 -8 34 2 51 -2 65 -16 10 -10 18
-20 18 -23 0 -3 16 -21 35 -41 36 -36 44 -54 23 -54 -8 -1 -6 -6 5 -14 22 -17
22 -55 0 -63 -14 -5 -13 -8 6 -15 26 -9 19 -28 -10 -28 -10 0 -19 -7 -19 -15
0 -8 5 -15 11 -15 7 0 -6 -16 -27 -36 -30 -29 -38 -43 -35 -65 1 -17 -2 -29
-9 -29 -8 0 -8 -6 0 -20 17 -32 2 -68 -36 -86 -19 -9 -34 -23 -34 -30 0 -8 -6
-14 -14 -14 -8 0 -16 -7 -20 -15 -3 -8 -15 -15 -26 -15 -24 0 -27 15 -3 24 12
5 13 10 5 18 -19 19 -72 -9 -72 -38 0 -15 -6 -24 -15 -24 -8 0 -15 7 -15 15 0
8 -6 15 -12 16 -7 0 -37 3 -65 5 -31 2 -53 0 -53 -6 0 -6 -7 -10 -15 -10 -8 0
-12 6 -10 13 3 6 1 17 -3 24 -8 13 -112 20 -131 9 -17 -11 -71 13 -71 31 0 8
5 11 10 8 6 -3 10 -2 10 4 0 17 -20 23 -36 10 -12 -10 -17 -10 -23 0 -6 9 -22
-2 -56 -36 -26 -26 -45 -40 -41 -30 6 18 -18 25 -29 7 -3 -6 -17 -7 -31 -4
-16 4 -26 1 -29 -9 -4 -9 -18 -13 -41 -11 -18 1 -34 -2 -34 -7 0 -5 -7 -9 -15
-9 -19 0 -19 14 1 35 10 10 13 22 8 33 -7 15 -8 14 -11 -5 -4 -21 -30 -39 -41
-28 -3 3 0 5 8 5 10 0 10 3 0 15 -13 16 -49 11 -62 -8 -4 -7 -11 -7 -20 1 -8
6 -33 9 -56 7 -27 -3 -41 0 -39 7 1 6 -3 12 -10 15 -7 3 -10 -3 -6 -16 7 -26
24 -31 101 -28 96 4 73 -21 -28 -29 -42 -4 -69 -8 -130 -20 -14 -3 -42 -5 -63
-4 -22 0 -44 -3 -50 -8 -10 -8 -75 -25 -101 -26 -5 -1 -10 7 -12 17 -1 11 5
17 19 18 12 0 31 3 42 6 11 3 44 7 73 8 29 2 64 10 77 19 13 9 33 16 45 16 11
0 20 7 20 16 0 12 -5 13 -22 7 -13 -4 -36 -7 -51 -7 -19 1 -24 -2 -15 -7 9 -6
7 -9 -10 -9 -24 0 -26 18 -3 36 9 7 10 13 4 17 -6 4 -26 -7 -44 -23 -32 -28
-48 -34 -76 -31 -7 1 -13 -3 -13 -8 0 -13 -102 -5 -110 9 -7 11 -50 2 -50 -12
0 -5 -4 -6 -10 -3 -5 3 -10 11 -10 16 0 6 5 7 10 4 15 -9 12 11 -3 23 -10 8
-16 6 -26 -10 -9 -15 -10 -23 -1 -28 7 -5 6 -11 -6 -21 -16 -12 -17 -12 -11 5
5 13 3 17 -7 13 -8 -3 -17 1 -20 10 -6 14 -8 14 -24 -1 -10 -9 -27 -16 -37
-16 -10 0 -29 -10 -42 -22 -20 -18 -26 -20 -33 -9 -7 12 -14 12 -43 -2 -43
-21 -115 -24 -99 -4 6 7 32 14 58 15 26 1 51 7 54 13 4 6 15 9 25 7 10 -2 20
3 23 11 3 8 0 11 -7 7 -6 -4 -11 -1 -11 8 0 20 -19 20 -56 1 -20 -10 -44 -13
-79 -9 -28 4 -66 2 -85 -3 -43 -12 -61 -7 -53 15 4 14 3 14 -5 3 -13 -19 -4
-41 17 -41 10 0 8 -5 -9 -13 -27 -14 -124 -1 -114 15 8 13 -50 -3 -58 -16 -5
-8 -8 -7 -8 2 0 6 -5 12 -11 12 -5 0 -8 -4 -5 -9 3 -5 -3 -11 -14 -14 -11 -3
-20 0 -20 6 0 8 -3 8 -8 2 -9 -12 -97 -13 -109 -1 -4 5 1 7 15 3 15 -3 22 -1
22 9 0 8 -8 14 -19 14 -21 0 -45 -25 -37 -38 3 -5 -2 -9 -10 -9 -11 0 -14 7
-11 24 6 34 -15 47 -37 22 -16 -20 -16 -21 3 -26 12 -3 18 -9 15 -15 -3 -5
-15 -6 -26 -2 -13 4 -24 1 -29 -7 -8 -12 -10 -12 -18 0 -6 10 -4 23 7 40 12
18 13 23 3 17 -20 -13 -111 -14 -111 -1 0 5 -4 4 -9 -4 -10 -15 -31 -7 -31 12
0 7 -12 23 -25 36 -14 13 -25 29 -25 37 0 7 -11 16 -25 20 -24 6 -25 8 -11 28
12 20 12 26 -1 54 -9 18 -19 32 -24 32 -17 0 -19 -21 -4 -44 19 -29 13 -46
-16 -46 -14 0 -19 7 -19 30 0 22 -4 28 -15 24 -10 -4 -18 3 -24 19 -5 14 -15
28 -21 32 -8 5 -10 22 -6 49 6 36 3 46 -21 72 -50 55 -93 52 -93 -6 0 -35 -17
-30 -38 11 -26 49 -26 49 -6 49 8 0 12 5 9 10 -3 6 -17 7 -30 4 -20 -5 -23 -3
-18 14 2 11 -1 23 -8 28 -9 5 -10 2 -6 -10 6 -14 2 -16 -21 -13 -50 9 -82 26
-92 51 -9 23 -11 24 -112 22 -77 -2 -107 1 -117 12 -12 12 -12 15 0 23 9 5 10
9 2 9 -6 0 -15 -5 -18 -10 -9 -14 -25 -12 -25 3 0 8 -7 14 -15 14 -21 0 -19
-23 2 -31 15 -6 15 -8 3 -16 -8 -5 -11 -13 -6 -17 4 -4 13 0 20 10 17 22 26
22 26 -3 0 -21 -16 -25 -57 -14 -14 4 -23 14 -23 25 0 11 -5 19 -11 19 -6 0
-9 -7 -5 -15 8 -23 -7 -18 -48 14 -21 16 -42 32 -49 34 -8 3 -5 10 8 21 11 8
14 16 8 16 -7 0 -18 -9 -25 -19 -6 -10 -18 -17 -25 -14 -7 3 -13 -2 -13 -11 0
-11 -9 -16 -26 -16 -21 0 -25 4 -21 20 3 11 1 20 -4 20 -5 0 -9 -4 -9 -9 0
-12 -48 -1 -61 15 -6 8 -20 14 -31 14 -10 0 -22 8 -26 18 -5 13 -19 18 -49 19
-75 1 -84 3 -79 11 2 4 -4 13 -15 20 -13 8 -19 9 -19 1 0 -6 -10 -9 -22 -7
-13 2 -22 9 -20 16 1 7 -5 15 -13 18 -19 8 -20 34 0 34 18 0 57 42 48 51 -8 7
-93 -3 -132 -16 -14 -4 -18 0 -17 17 1 19 7 23 34 24 18 0 36 5 40 10 15 22
41 23 56 2 19 -27 29 -19 21 15 -6 22 -10 25 -30 17 -14 -5 -26 -5 -33 2 -6 6
-12 6 -17 -2 -4 -7 -15 -2 -31 15 -13 14 -28 24 -33 21 -5 -3 -11 9 -15 26 -4
20 -2 34 6 39 9 6 6 15 -12 35 -14 15 -20 24 -14 21 13 -7 18 59 5 67 -5 3 -7
17 -6 31 2 16 -4 30 -18 40 -19 13 -19 15 -3 15 10 0 16 3 14 8 -3 4 -10 22
-17 40 -15 36 -24 40 -43 15 -7 -10 -20 -19 -28 -21 -8 -2 -25 -13 -37 -24
-16 -15 -30 -19 -52 -15 -22 5 -35 0 -56 -18 -14 -14 -37 -25 -51 -25 -13 0
-23 -5 -22 -11 2 -7 -11 -16 -29 -21 -18 -4 -35 -13 -38 -18 -3 -6 -14 -10
-23 -10 -24 0 -91 -35 -113 -59 -10 -11 -26 -18 -36 -16 -10 2 -26 4 -35 4
-10 1 -18 7 -18 15 0 29 -21 27 -56 -3 -19 -17 -41 -31 -50 -31 -8 0 -17 -7
-21 -16 -4 -12 -14 -14 -45 -9 -30 5 -44 3 -58 -10 -14 -13 -23 -14 -39 -6
-30 16 -40 14 -53 -15 -10 -22 -16 -25 -42 -19 -17 4 -48 7 -68 8 -20 1 -43 8
-49 14 -7 7 -18 13 -24 13 -15 1 -50 32 -64 58 -9 17 -21 22 -54 22 -24 0 -48
-5 -55 -12 -14 -14 -26 -4 -27 25 -1 12 -7 41 -14 65 -11 40 -14 42 -49 42
-21 0 -43 5 -48 10 -12 12 -54 15 -104 7 -22 -4 -37 -2 -42 6 -6 9 -12 9 -26
0 -14 -8 -23 -8 -30 -1 -8 8 -16 6 -27 -6 -20 -20 -34 -20 -41 -1 -4 8 -13 15
-21 15 -8 0 -12 4 -8 9 10 17 -12 21 -25 6 -18 -22 -37 -19 -68 11 -22 20 -35
25 -69 22 -22 -2 -39 0 -37 3 2 4 -3 9 -11 13 -8 3 -17 1 -20 -4 -12 -20 -22
-9 -34 41 -10 38 -19 53 -38 60 -14 5 -29 7 -34 3 -5 -3 -9 2 -9 10 0 8 -5 18
-12 22 -7 4 -8 3 -4 -4 4 -7 1 -12 -8 -12 -19 0 -30 17 -14 23 7 2 10 8 6 12
-4 4 -18 1 -32 -8 -26 -17 -38 -13 -29 9 4 12 -1 14 -23 9 l-29 -5 27 11 c23
9 27 16 24 41 -1 16 -9 34 -17 39 -11 7 -9 13 11 29 24 19 24 21 7 34 -18 14
-18 16 -1 48 11 20 18 58 19 98 1 67 19 110 44 110 8 0 11 3 8 6 -10 10 12 44
28 44 9 0 12 6 9 15 -4 10 0 15 15 15 18 0 20 3 12 19 -6 10 -8 21 -5 24 3 3
-4 8 -15 12 -12 3 -22 11 -22 16 -1 5 -2 15 -3 22 -1 6 2 18 7 25 5 6 7 13 3
13 -24 5 -33 4 -47 -8 -14 -12 -17 -12 -22 1 -7 17 -32 12 -55 -11 -10 -10
-17 -10 -32 0 -27 16 -25 25 5 33 27 7 33 19 13 27 -10 4 -10 6 0 6 18 1 15
21 -3 21 -9 0 -18 13 -22 32 -5 27 -7 29 -14 13 -7 -17 -8 -18 -8 -2 -1 9 -6
17 -12 17 -5 0 -7 -5 -3 -11 5 -9 -1 -10 -21 -5 -23 6 -26 4 -21 -10 4 -11 2
-15 -8 -11 -17 7 -29 -32 -15 -49 7 -8 6 -14 -3 -18 -11 -5 -11 -7 0 -12 8 -4
10 -10 3 -17 -9 -12 -11 -18 -11 -38 0 -5 -5 -7 -11 -3 -6 3 -15 1 -19 -7 -5
-7 -16 -14 -24 -15 -13 -2 -16 8 -16 52 0 31 -4 54 -11 54 -5 0 -8 -4 -5 -8 3
-5 -9 -19 -25 -31 -23 -17 -34 -20 -42 -12 -8 8 -8 11 1 11 16 0 15 27 0 34
-7 3 -4 4 6 3 10 -1 21 3 23 9 2 7 -6 10 -23 6 -19 -3 -31 1 -40 12 -11 16
-13 16 -19 -3 -3 -12 -10 -21 -15 -21 -5 0 -6 7 -3 17 4 11 3 14 -5 9 -7 -4
-12 -2 -12 3 0 6 4 11 10 11 5 0 9 11 8 24 -1 14 -6 22 -10 20 -4 -3 -8 -1 -8
5 0 5 -5 22 -11 38 -6 15 -11 46 -10 68 1 22 2 53 2 69 0 16 4 35 9 42 7 8 3
17 -16 29 -26 17 -28 17 -45 -6 -15 -20 -21 -21 -28 -10 -5 8 -7 21 -4 29 5
12 2 12 -14 4 -24 -13 -33 -7 -33 24 0 12 -7 24 -15 28 -11 4 -14 13 -9 31 4
15 2 25 -5 25 -6 0 -11 -5 -11 -11 0 -8 -4 -9 -13 0 -8 6 -17 8 -21 4 -3 -4
-15 3 -26 15 -12 12 -29 22 -40 22 -39 0 -69 24 -99 79 -19 35 -31 48 -31 36
0 -17 -3 -15 -20 10 -11 17 -20 40 -20 53 0 13 -4 20 -10 17 -5 -3 -10 -1 -10
4 0 6 -6 11 -14 11 -8 0 -17 6 -20 13 -5 10 -7 10 -12 0 -3 -7 -12 -13 -21
-13 -10 0 -12 -6 -8 -20 7 -21 -10 -28 -18 -7 -4 9 -8 8 -16 -3 -5 -8 -13 -11
-16 -8 -4 4 2 17 14 29 24 26 24 24 2 109 -10 39 -21 64 -29 62 -6 -1 -12 2
-12 8 0 5 7 10 15 10 9 0 15 9 15 23 0 20 -5 24 -29 25 -22 0 -28 -3 -24 -14
7 -19 -21 -18 -37 1 -10 12 -9 16 4 21 26 10 8 24 -31 24 -27 0 -34 3 -29 15
3 9 0 15 -10 15 -9 0 -18 9 -21 20 -5 20 -23 28 -23 10 0 -14 -23 -13 -38 2
-10 10 -7 15 10 25 l23 12 -27 1 c-16 0 -29 7 -32 18 -3 9 -3 -1 -1 -23 2 -22
2 -35 -1 -28 -3 7 -12 9 -20 6 -10 -4 -12 0 -8 11 4 10 -1 25 -11 36 -15 17
-16 20 -3 20 19 0 40 24 30 34 -12 13 -10 146 2 140 6 -3 2 2 -8 10 -27 22
-46 20 -46 -4 0 -12 -7 -20 -16 -20 -10 0 -14 6 -11 14 4 10 1 13 -9 9 -22 -8
-17 15 6 27 11 6 20 19 20 30 0 10 4 20 10 22 5 2 7 14 3 26 -4 15 -8 19 -13
12 -4 -7 -7 1 -8 17 0 15 -3 48 -7 73 -4 25 -7 65 -8 90 -2 33 -11 58 -35 92
-17 26 -32 54 -32 63 0 9 -4 13 -10 10 -5 -3 -10 3 -10 14 0 12 6 21 13 21 8
0 7 4 -3 10 -9 6 -10 10 -3 10 6 0 12 8 12 18 0 9 5 42 11 72 6 30 16 78 21
106 8 40 15 54 35 63 26 11 26 12 9 39 -10 15 -27 35 -37 46 -11 10 -17 25
-14 33 4 9 1 22 -5 29 -6 8 -9 20 -6 28 3 8 3 17 -1 20 -9 10 -9 126 1 126 4
0 7 12 7 26 0 14 5 35 12 47 17 32 17 79 -1 107 -20 34 -23 67 -5 74 9 3 12
10 9 16 -3 6 1 17 9 26 12 12 16 12 17 2 0 -7 6 0 13 15 7 16 12 38 11 50 -1
12 2 25 8 28 11 8 -1 69 -14 69 -12 0 -12 37 1 45 15 9 12 41 -5 55 -9 7 -14
18 -12 24 2 6 -2 21 -9 35 -8 16 -9 32 -3 47 4 13 6 24 3 24 -2 0 0 8 5 19 11
19 23 98 22 140 -1 14 10 36 23 50 13 14 27 41 31 59 4 18 11 30 16 26 5 -3 9
0 9 6 0 6 5 8 12 4 8 -5 9 -2 5 10 -4 11 1 28 13 43 11 14 20 31 20 38 0 7 15
18 33 25 56 23 103 80 65 80 -7 0 18 16 56 35 39 19 74 35 80 35 6 0 19 11 31
25 13 17 34 28 60 31 52 8 94 28 122 58 13 13 39 31 59 41 26 12 33 20 24 25
-7 5 -19 6 -27 3 -23 -9 -14 13 12 27 14 7 25 21 25 31 0 10 14 31 30 48 17
16 26 32 21 36 -16 9 -8 45 12 51 25 8 17 38 -11 42 -20 3 -20 5 -7 18 20 21
19 37 -5 59 -11 10 -20 14 -20 10 0 -4 -9 0 -20 10 -16 14 -19 26 -14 52 5 25
2 34 -9 39 -17 6 -15 10 24 54 17 18 10 45 -12 45 -7 0 -14 6 -17 14 -3 8 -1
11 4 8 5 -3 9 25 9 61 0 37 5 78 12 91 7 14 10 28 7 33 -3 4 0 8 5 8 6 0 11 5
11 11 0 6 -13 8 -31 5 -21 -3 -32 0 -36 10 -4 11 -9 12 -19 3 -18 -15 -17 1 1
25 8 10 12 23 9 28 -3 4 2 11 10 14 10 4 16 18 16 35 0 21 -4 27 -15 23 -16
-7 -14 8 8 54 8 18 7 25 -8 36 -20 14 -13 36 11 36 8 0 12 5 9 10 -3 6 1 10 9
10 9 0 16 5 16 11 0 5 -4 7 -10 4 -6 -3 -7 1 -4 9 3 9 10 13 15 10 5 -3 9 3 9
13 1 22 23 53 39 53 6 0 11 5 11 11 0 20 45 48 77 49 47 0 63 9 63 37 0 21 3
23 14 14 10 -8 16 -9 21 -1 3 5 21 10 40 10 19 0 37 5 40 10 3 6 14 10 24 10
10 0 24 6 30 14 6 7 29 16 50 20 30 5 43 13 59 40 20 34 70 66 103 66 10 0 25
10 33 22 12 16 24 21 55 20 21 -1 50 -6 63 -11 12 -4 57 -14 98 -21 41 -7 82
-18 91 -26 9 -8 18 -11 22 -8 3 4 46 -10 94 -31 86 -37 99 -40 175 -43 20 -1
43 -8 50 -15 12 -11 54 -31 133 -61 25 -9 95 -56 115 -76 3 -3 31 -24 62 -48
45 -33 66 -42 98 -42 43 0 54 -14 19 -23 -20 -5 -20 -7 -6 -21 17 -18 113 -23
102 -6 -3 6 -1 10 4 10 6 0 11 8 11 18 0 12 18 26 54 41 49 22 53 26 50 54 -2
16 1 36 6 43 8 9 3 12 -21 11 -43 -3 -49 20 -7 31 27 7 35 16 46 48 7 21 19
44 26 49 7 6 13 17 14 25 1 8 5 33 8 55 l5 40 -17 -32 c-9 -18 -20 -30 -25
-27 -14 8 -10 26 9 40 14 11 14 15 3 23 -9 6 -10 11 -2 15 6 4 11 2 11 -4 0
-18 57 17 63 39 6 25 -23 55 -38 38 -5 -7 -10 -18 -10 -26 0 -8 -6 -16 -12
-18 -7 -3 -13 2 -13 11 0 24 31 96 41 96 5 0 9 5 9 11 0 6 -7 9 -15 6 -19 -8
-30 10 -16 27 13 15 6 107 -9 136 -20 38 -19 80 3 101 l21 19 -26 0 c-20 0
-27 6 -30 23 -2 12 -10 22 -18 22 -11 0 -15 11 -15 40 0 22 3 45 6 50 4 6 9
39 13 73 9 82 71 219 91 202 11 -9 15 -2 20 34 4 24 4 50 -1 57 -5 9 -2 10 9
6 21 -8 23 19 3 30 -25 14 -13 47 22 64 31 15 32 16 15 31 -10 9 -35 23 -55
31 -34 15 -53 47 -27 47 5 0 7 5 4 10 -4 6 -10 8 -15 5 -4 -3 -11 2 -14 11 -4
11 -14 15 -33 11 -27 -5 -176 18 -196 30 -26 16 -43 11 -59 -17 -9 -17 -24
-30 -33 -30 -8 0 -15 -4 -15 -10 0 -5 -9 -10 -19 -10 -11 0 -23 5 -26 10 -3 6
-11 10 -16 10 -6 0 -8 -4 -5 -8 2 -4 1 -14 -3 -21 -14 -22 -56 13 -59 49 -3
33 -2 34 78 30 30 -1 52 1 49 5 -12 11 -100 15 -119 5 -20 -11 -33 0 -45 38
-5 16 -2 27 10 35 20 16 10 47 -15 47 -11 0 -21 -4 -24 -9 -6 -8 -64 -21 -96
-21 -8 0 -29 0 -47 0 -32 -1 -113 27 -113 39 0 3 12 12 27 18 22 11 28 10 39
-5 12 -16 13 -16 19 0 4 9 4 22 0 27 -3 6 7 13 22 17 15 3 57 17 93 30 82 30
129 31 154 3 13 -15 15 -24 7 -32 -6 -6 -11 -8 -11 -3 0 4 -7 1 -15 -8 -17
-17 -20 -46 -4 -46 5 0 7 6 3 13 -6 9 -5 9 8 0 8 -7 18 -10 21 -6 4 3 9 -2 13
-11 3 -9 10 -13 15 -10 5 3 7 10 4 15 -7 11 7 12 20 1 6 -4 28 -5 50 -1 22 3
34 7 27 8 -18 2 -119 77 -130 98 -7 12 -4 21 12 34 11 10 16 18 10 19 -6 0 -9
10 -7 24 4 21 0 26 -33 35 -53 15 -87 14 -110 -4 -23 -17 -64 -20 -64 -4 0 7
-13 9 -37 5 -21 -3 -48 -6 -60 -6 -12 0 -25 -5 -28 -11 -4 -5 -16 -7 -26 -4
-11 4 -25 2 -32 -3 -34 -26 -46 -21 -66 22 -21 49 -72 92 -116 100 -50 9 -82
26 -95 51 -8 15 -19 22 -32 20 -11 -2 -28 1 -38 8 -16 9 -25 7 -49 -11 -32
-24 -56 -28 -66 -12 -3 6 1 10 9 10 20 0 20 14 2 29 -13 11 -12 15 5 32 10 10
19 23 19 28 0 5 12 11 27 13 25 3 23 4 -15 14 -36 10 -45 9 -62 -6 -12 -10
-29 -16 -40 -13 -14 4 -20 0 -20 -11 0 -9 -6 -16 -13 -16 -14 0 -101 54 -128
80 -51 49 -90 80 -118 95 -17 8 -29 20 -26 25 4 6 -6 10 -22 10 -15 0 -39 9
-53 20 -14 11 -35 20 -47 20 -13 0 -23 5 -23 10 0 6 5 10 10 10 6 0 10 5 10
10 0 13 -17 13 -25 0z m105 -111 c34 -18 53 -39 35 -39 -12 0 -84 40 -90 50
-10 16 11 12 55 -11z m-271 -102 c-6 -14 -18 -28 -25 -31 -19 -7 -45 4 -38 15
3 5 9 7 13 4 5 -2 19 7 31 20 28 30 35 27 19 -8z m124 21 c46 -24 57 -28 71
-28 7 0 19 -7 26 -15 7 -8 20 -15 30 -15 10 0 23 -7 30 -16 11 -12 11 -18 -2
-30 -13 -14 -22 -12 -79 11 -62 24 -67 25 -107 11 -48 -17 -56 -11 -40 35 20
60 31 68 71 47z m-353 -22 c0 -3 -4 -8 -10 -11 -5 -3 -10 -1 -10 4 0 6 5 11
10 11 6 0 10 -2 10 -4z m82 -28 c2 -13 -7 -38 -19 -57 -13 -19 -23 -40 -23
-47 0 -8 -7 -14 -15 -14 -8 0 -15 -6 -15 -14 0 -21 -43 -85 -57 -86 -17 0 -16
15 2 33 12 13 9 15 -26 21 -22 4 -45 3 -51 0 -7 -4 -8 -2 -4 4 4 7 12 12 18
12 14 0 48 30 48 42 0 5 -5 6 -12 2 -14 -9 -5 8 30 54 27 37 78 72 104 72 10
0 18 -9 20 -22z m476 -65 c2 -12 13 -23 24 -26 18 -5 19 -8 8 -21 -14 -18 -43
-20 -71 -6 -24 13 -24 34 -1 59 21 24 36 21 40 -6z m-1723 -2 c9 -15 -17 -25
-55 -22 -42 3 -49 9 -30 21 19 12 77 13 85 1z m1015 -85 c0 -3 -4 -8 -10 -11
-5 -3 -10 -1 -10 4 0 6 5 11 10 11 6 0 10 -2 10 -4z m1196 -38 c5 -8 0 -9 -16
-5 -13 3 -30 1 -37 -4 -14 -12 -36 -3 -28 12 9 13 72 11 81 -3z m130 -23 c18
-13 17 -14 -16 -11 -19 2 -38 4 -42 5 -5 0 -8 6 -8 11 0 15 44 12 66 -5z
m-761 -15 c-3 -4 -19 -6 -37 -4 -45 4 -47 5 -18 13 28 8 62 3 55 -9z m-1785
-40 c0 -5 -4 -10 -10 -10 -5 0 -10 5 -10 10 0 6 5 10 10 10 6 0 10 -4 10 -10z
m2548 -76 c1 -18 -2 -23 -11 -17 -6 4 -21 8 -31 8 -28 0 -30 18 -4 31 31 14
43 8 46 -22z m-18 -49 c0 -29 -34 -36 -44 -9 -10 27 -7 34 19 34 20 0 25 -5
25 -25z m250 -164 c0 -17 -18 -21 -24 -6 -3 9 0 15 9 15 8 0 15 -4 15 -9z
m194 -23 c-9 -30 -23 -48 -39 -48 -21 0 -26 29 -7 39 9 6 13 11 7 11 -14 1 17
20 33 20 9 0 11 -7 6 -22z m-354 -34 c0 -8 -4 -12 -10 -9 -5 3 -10 10 -10 16
0 5 5 9 10 9 6 0 10 -7 10 -16z m427 -116 c28 -26 29 -38 5 -38 -15 0 -42 36
-42 55 0 11 15 4 37 -17z m43 8 c0 -11 -19 -15 -25 -6 -3 5 1 10 9 10 9 0 16
-2 16 -4z m98 -14 c3 -9 -2 -13 -14 -10 -9 1 -19 9 -22 16 -3 9 2 13 14 10 9
-1 19 -9 22 -16z m-248 -38 c0 -3 -7 -12 -15 -21 -20 -19 -32 -10 -14 11 14
15 29 21 29 10z m90 -31 c0 -13 -3 -13 -15 -3 -8 7 -15 16 -15 21 0 5 7 6 15
3 8 -4 15 -13 15 -21z m-4870 -18 c0 -8 -9 -15 -20 -15 -20 0 -26 11 -13 23
12 13 33 7 33 -8z m4933 -63 c-1 -11 4 -26 12 -32 17 -14 20 -70 4 -70 -18 0
-59 43 -59 62 0 9 5 20 10 23 6 3 10 15 10 26 0 12 5 19 13 16 6 -2 11 -13 10
-25z m-175 -30 c2 -7 -2 -10 -12 -6 -9 3 -16 11 -16 16 0 13 23 5 28 -10z
m-5284 -188 c32 -12 13 -54 -25 -54 -10 0 -12 43 -2 53 8 8 8 8 27 1z m-159
-822 c-15 -13 -89 -32 -121 -32 -28 1 -27 2 9 15 21 7 41 16 44 19 4 3 22 6
42 6 19 0 31 -4 26 -8z m6035 -36 c0 -3 -4 -8 -10 -11 -5 -3 -10 -1 -10 4 0 6
5 11 10 11 6 0 10 -2 10 -4z m-6110 -46 c0 -5 -8 -10 -17 -10 -15 0 -16 2 -3
10 19 12 20 12 20 0z m6040 -15 c-7 -9 -15 -13 -19 -10 -3 3 1 10 9 15 21 14
24 12 10 -5z m-6124 -1812 c-7 -7 -26 7 -26 19 0 6 6 6 15 -2 9 -7 13 -15 11
-17z m1737 -779 c9 -3 17 -10 17 -15 0 -5 6 -9 13 -9 7 0 14 -11 15 -25 2 -23
-1 -24 -46 -21 -26 2 -47 4 -47 6 0 4 -71 5 -75 0 -9 -10 -108 -40 -131 -40
-15 0 -32 -11 -44 -27 -11 -15 -30 -37 -41 -48 -31 -29 -64 -87 -64 -111 0
-12 7 -27 15 -34 11 -9 15 -9 15 -1 0 7 5 9 10 6 6 -3 13 0 16 9 6 15 81 55
143 75 19 6 69 11 111 11 71 0 80 -2 116 -31 42 -33 54 -55 59 -106 2 -18 9
-43 16 -55 7 -13 12 -24 11 -25 -4 -6 13 -39 22 -45 22 -15 55 -7 75 18 23 29
55 27 44 -3 -4 -10 -11 -22 -17 -26 -8 -6 -8 -10 0 -13 7 -3 10 -14 7 -24 -6
-21 5 -25 65 -21 35 3 37 0 20 -32 -26 -51 -124 -127 -168 -132 -55 -7 -100
-55 -100 -107 0 -23 46 -82 58 -76 4 2 21 10 37 18 36 18 56 36 70 64 6 12 20
22 32 24 28 4 45 -45 21 -59 -27 -15 -35 -60 -22 -136 4 -29 9 -33 35 -33 66
0 84 -34 55 -104 -13 -31 -13 -52 0 -115 5 -22 8 -23 49 -18 42 6 46 5 60 -23
8 -16 15 -31 14 -32 -5 -8 43 -88 53 -88 6 0 8 -3 5 -7 -4 -3 -16 2 -27 12
-19 18 -20 17 -20 -2 0 -23 -33 -36 -49 -20 -6 6 -11 7 -11 1 0 -5 12 -19 28
-31 15 -12 52 -42 83 -67 48 -38 67 -47 125 -56 98 -16 97 -15 82 -42 -7 -13
-23 -36 -35 -51 -13 -16 -23 -36 -23 -45 1 -21 46 -56 64 -49 8 3 18 1 24 -5
6 -6 28 -11 49 -12 l38 -1 15 -73 c11 -56 11 -75 2 -81 -11 -6 -20 -36 -21
-72 -1 -23 -92 -117 -126 -130 -68 -26 -180 -4 -279 56 -32 19 -60 35 -62 35
-2 0 -26 22 -53 49 -28 27 -59 52 -71 56 -11 3 -20 10 -20 15 0 5 -18 30 -41
57 -23 26 -49 58 -59 69 -10 12 -21 31 -25 43 -3 12 -12 21 -20 21 -7 0 -15 7
-19 15 -3 8 -17 20 -31 25 -14 5 -34 23 -43 40 -9 16 -25 30 -34 30 -9 0 -20
9 -23 20 -4 11 -11 18 -15 15 -13 -8 -82 56 -76 71 5 14 -17 46 -56 83 -16 14
-28 32 -28 39 0 8 -9 26 -20 42 -11 15 -17 30 -14 32 3 3 -6 15 -20 26 -15 11
-26 27 -26 36 0 9 -3 16 -8 16 -4 0 -13 15 -21 33 -8 17 -24 55 -37 82 -12 28
-32 82 -44 120 -12 39 -28 84 -35 100 -7 17 -12 42 -11 55 1 14 -6 34 -15 45
-20 23 -39 159 -39 275 0 96 49 300 72 300 4 0 8 6 8 13 1 17 76 97 92 97 10
0 9 3 -2 10 -12 8 -10 10 10 11 14 0 19 3 12 6 -8 3 -4 11 13 25 20 15 29 17
39 9 11 -9 15 -7 21 6 5 10 7 22 6 26 -1 4 4 7 11 5 7 -1 29 5 48 14 54 26
127 30 193 12z m532 -703 c-10 -9 -24 21 -17 37 4 12 7 10 14 -8 5 -13 6 -25
3 -29z m424 -304 c6 -6 11 -28 11 -49 0 -21 4 -38 10 -38 15 0 7 -43 -10 -57
-8 -7 -24 -13 -34 -13 -10 0 -31 -13 -47 -29 -29 -31 -64 -91 -53 -91 4 0 1
-6 -5 -13 -6 -8 -10 -16 -8 -18 1 -2 -10 8 -25 23 -15 16 -31 28 -37 28 -18 0
-61 54 -61 76 0 12 7 38 15 58 8 19 16 54 17 76 1 22 5 40 10 40 5 0 7 3 4 8
-2 4 16 16 40 26 30 12 43 23 40 32 -3 8 1 14 10 14 8 0 12 5 9 10 -4 6 7 10
24 10 18 0 31 -5 31 -12 0 -7 6 -4 12 7 11 18 13 15 24 -29 7 -27 17 -53 23
-59z m888 -179 c-3 -8 -6 -5 -6 6 -1 11 2 17 5 13 3 -3 4 -12 1 -19z m-996
-175 c5 -12 12 -23 17 -23 5 0 7 -11 4 -25 -6 -33 -42 -35 -41 -2 1 12 -3 34
-9 48 -8 21 -7 26 5 26 8 0 19 -11 24 -24z m1143 -178 c11 -8 14 -15 7 -15 -7
0 -9 -4 -6 -10 3 -5 1 -10 -4 -10 -6 0 -11 4 -11 9 0 5 -7 17 -16 25 -20 21 3
21 30 1z m46 -111 c0 -10 6 -14 15 -11 8 4 17 2 20 -2 2 -5 -6 -11 -20 -13
-17 -4 -25 -1 -25 8 0 8 -4 14 -10 14 -5 0 -10 5 -10 10 0 6 7 10 15 10 8 0
15 -7 15 -16z m230 -228 c0 -2 -7 -7 -16 -10 -8 -3 -12 -2 -9 4 6 10 25 14 25
6z m940 -766 c0 -5 -4 -10 -10 -10 -5 0 -10 5 -10 10 0 6 5 10 10 10 6 0 10
-4 10 -10z m-10 -70 c0 -5 -10 -10 -22 -9 -22 0 -22 1 -3 9 11 5 21 9 23 9 1
1 2 -3 2 -9z m790 -810 c0 -5 -2 -10 -4 -10 -3 0 -8 5 -11 10 -3 6 -1 10 4 10
6 0 11 -4 11 -10z m6020 -50 c0 -5 -2 -10 -4 -10 -3 0 -8 5 -11 10 -3 6 -1 10
4 10 6 0 11 -4 11 -10z m552 -47 c26 -5 49 -33 26 -33 -6 0 -19 -7 -29 -16
-13 -12 -22 -13 -37 -5 -37 20 -40 81 -3 65 9 -4 28 -9 43 -11z m-12710 -25
c13 -17 20 -20 26 -11 4 7 22 16 40 19 42 8 54 -17 23 -50 -18 -19 -30 -22
-88 -20 -37 1 -77 -2 -89 -6 -32 -13 -47 8 -33 47 18 54 86 66 121 21z m200
-8 c5 0 7 4 4 8 -8 13 11 35 23 28 6 -4 11 -22 11 -40 l0 -33 -60 -2 c-58 -2
-60 -1 -60 23 0 14 9 32 23 41 20 15 23 14 36 -5 7 -11 18 -20 23 -20z m258 1
c0 -10 -30 -24 -37 -17 -3 3 -2 9 2 15 8 13 35 15 35 2z m-1299 -24 c-13 -13
-26 -3 -16 12 3 6 11 8 17 5 6 -4 6 -10 -1 -17z m99 13 c0 -5 7 -10 16 -10 13
0 14 -3 4 -15 -10 -12 -90 -20 -90 -9 0 13 14 33 20 29 5 -3 11 -1 15 5 8 13
35 13 35 0z m211 -33 c-17 -17 -48 -18 -61 -2 -6 7 -19 11 -27 8 -11 -4 -14
-3 -9 6 4 7 13 10 19 8 6 -2 22 2 36 9 20 10 26 10 39 -2 11 -11 12 -18 3 -27z
m55 27 c-3 -9 -6 -20 -6 -25 0 -5 -6 -9 -14 -9 -16 0 -16 31 -1 42 17 13 27 9
21 -8z m779 6 c-3 -5 -10 -10 -16 -10 -5 0 -9 5 -9 10 0 6 7 10 16 10 8 0 12
-4 9 -10z m12240 0 c3 -5 1 -10 -4 -10 -6 0 -11 5 -11 10 0 6 2 10 4 10 3 0 8
-4 11 -10z m-13190 -10 c3 -5 -3 -10 -15 -10 -12 0 -18 5 -15 10 3 6 10 10 15
10 5 0 12 -4 15 -10z m13070 1 c3 -5 1 -12 -5 -16 -5 -3 -10 1 -10 9 0 18 6
21 15 7z m-12705 -13 c16 -10 24 -10 40 0 27 16 30 15 30 -9 0 -12 -5 -19 -12
-16 -7 2 -21 0 -31 -5 -9 -5 -23 -5 -30 -1 -6 4 -15 8 -19 8 -5 0 -8 3 -8 8 0
4 0 12 0 17 0 13 6 13 30 -2z m-73 -30 c-3 -7 -5 -2 -5 12 0 14 2 19 5 13 2
-7 2 -19 0 -25z m723 -2 c0 -3 -7 -12 -16 -20 -22 -23 -50 -20 -50 4 0 16 7
20 33 20 18 0 33 -2 33 -4z m-152 -23 c-4 -22 -46 -30 -62 -12 -8 9 -8 10 1 5
6 -3 18 0 25 8 18 21 40 20 36 -1z m-123 -3 c-3 -5 -12 -10 -20 -10 -8 0 -17
5 -20 10 -4 6 5 10 20 10 15 0 24 -4 20 -10z m-129 -10 c9 0 13 -4 10 -9 -7
-11 -56 -2 -56 11 0 6 7 7 16 4 9 -3 22 -6 30 -6z m12694 -28 c0 -11 -8 -18
-20 -19 -19 -2 -27 16 -13 30 13 13 33 7 33 -11z m-5065 -32 c3 -5 1 -10 -4
-10 -6 0 -11 5 -11 10 0 6 2 10 4 10 3 0 8 -4 11 -10z m4597 -10 c10 0 18 -5
18 -12 0 -9 3 -9 12 0 17 17 86 15 104 -3 22 -22 34 -18 34 10 0 14 5 25 10
25 6 0 10 -9 10 -20 0 -11 6 -20 13 -21 31 -2 52 -9 55 -18 5 -14 32 -15 32
-2 0 6 -4 13 -10 16 -5 3 -10 11 -10 17 0 6 9 3 20 -7 15 -14 23 -15 34 -6 10
8 15 9 18 1 2 -6 23 -13 48 -16 24 -3 49 -13 57 -22 8 -11 12 -12 13 -4 0 6
11 12 24 12 17 0 29 -9 38 -27 24 -51 83 -36 102 25 6 19 4 22 -23 22 -37 0
-61 9 -61 23 0 7 4 7 12 -1 15 -15 55 -16 63 -1 5 7 12 6 23 -4 10 -8 25 -17
35 -20 9 -4 17 -16 17 -27 0 -12 4 -19 8 -16 5 3 9 -18 10 -47 1 -74 6 -120
15 -134 13 -20 -1 -32 -31 -28 -15 2 -30 4 -34 4 -5 1 -8 19 -8 41 0 22 -4 40
-10 40 -5 0 -10 7 -10 15 0 26 -28 5 -34 -26 -4 -20 -11 -29 -25 -29 -11 0
-21 6 -24 13 -3 9 -7 9 -20 -2 -9 -7 -28 -11 -41 -9 -31 6 -58 -8 -34 -17 14
-6 14 -10 -3 -44 -10 -21 -16 -49 -13 -62 2 -13 2 -19 -1 -13 -3 6 -21 10 -40
8 -28 -2 -34 2 -39 22 -4 14 -4 29 -1 33 2 5 -4 11 -14 14 -20 5 -31 -10 -31
-43 0 -11 -10 -20 -30 -23 -16 -4 -38 -15 -48 -25 -10 -10 -23 -17 -29 -15 -6
2 -14 0 -17 -6 -4 -6 -13 -8 -21 -5 -9 4 -18 -2 -22 -12 -3 -11 -11 -22 -17
-26 -7 -5 -7 -8 2 -8 25 0 11 -20 -15 -20 -16 0 -35 -4 -42 -9 -23 -15 -51 6
-51 37 0 16 -7 37 -15 48 -13 17 -14 15 -15 -33 0 -28 -4 -54 -9 -57 -13 -9
-28 65 -25 131 2 35 -1 65 -6 68 -4 3 -6 40 -3 83 3 50 1 72 -5 63 -7 -10 -11
-1 -14 30 -5 48 -1 69 14 69 5 0 6 -6 2 -12 -4 -7 3 -4 15 7 12 11 18 21 12
23 -6 2 -11 10 -11 18 0 8 -6 14 -12 14 -9 0 -8 3 2 10 9 6 18 6 24 0 6 -6 18
-10 28 -10z m375 -12 c-3 -8 -6 -5 -6 6 -1 11 2 17 5 13 3 -3 4 -12 1 -19z
m-513 -64 c2 -16 6 -41 10 -55 7 -26 9 -45 21 -324 6 -151 6 -162 -13 -185
-11 -14 -23 -22 -27 -19 -6 7 -7 84 -2 214 1 39 0 74 -2 80 -3 5 -4 47 -2 92
1 51 -1 83 -8 83 -5 0 -10 8 -10 18 0 9 -1 26 -3 37 -1 11 -1 42 0 70 2 45 3
48 18 33 9 -9 17 -29 18 -44z m596 46 c0 -12 -8 -12 -35 0 -18 8 -17 9 8 9 15
1 27 -3 27 -9z m300 -63 c0 -20 -17 -40 -29 -33 -7 5 -7 14 1 31 11 24 28 25
28 2z m-5390 -7 c0 -5 -5 -10 -11 -10 -5 0 -7 5 -4 10 3 6 8 10 11 10 2 0 4
-4 4 -10z m4394 -16 c9 -24 7 -28 -9 -14 -17 14 -20 30 -6 30 5 0 12 -7 15
-16z m-269 -14 c-3 -5 -13 -10 -21 -10 -8 0 -14 5 -14 10 0 6 9 10 21 10 11 0
17 -4 14 -10z m85 -10 c-10 -6 -11 -10 -2 -10 17 0 15 -25 -3 -40 -12 -10 -15
-10 -16 1 0 8 -2 24 -3 37 -2 16 2 22 18 22 17 0 18 -2 6 -10z m-4080 -26 c0
-8 -4 -14 -10 -14 -5 0 -10 9 -10 21 0 11 5 17 10 14 6 -3 10 -13 10 -21z
m-39 -27 c-13 -13 -26 -3 -16 12 3 6 11 8 17 5 6 -4 6 -10 -1 -17z m5316 -9
c-3 -7 -5 -2 -5 12 0 14 2 19 5 13 2 -7 2 -19 0 -25z m-4993 -13 c-7 -17 -20
-20 -28 -6 -4 5 0 12 6 14 23 9 28 7 22 -8z m-264 -9 c0 -3 -4 -8 -10 -11 -5
-3 -10 -1 -10 4 0 6 5 11 10 11 6 0 10 -2 10 -4z m293 -35 c3 -14 -1 -20 -19
-24 -13 -2 -24 0 -24 4 0 5 5 9 10 9 6 0 10 9 10 21 0 24 15 18 23 -10z m-493
9 c0 -5 -2 -10 -4 -10 -3 0 -8 5 -11 10 -3 6 -1 10 4 10 6 0 11 -4 11 -10z
m980 0 c0 -5 -4 -10 -10 -10 -5 0 -10 5 -10 10 0 6 5 10 10 10 6 0 10 -4 10
-10z m-340 -13 c84 -44 97 -107 16 -73 -27 11 -33 19 -29 35 4 15 1 21 -11 21
-10 0 -14 -4 -11 -10 3 -5 1 -10 -6 -10 -12 0 -38 29 -39 43 0 12 53 8 80 -6z
m-437 -24 c-7 -2 -19 -2 -25 0 -7 3 -2 5 12 5 14 0 19 -2 13 -5z m-73 -13 c0
-5 -9 -10 -21 -10 -11 0 -17 5 -14 10 3 6 13 10 21 10 8 0 14 -4 14 -10z m853
-10 c-6 -24 -26 -21 -31 3 -2 11 3 17 16 17 15 0 19 -5 15 -20z m-968 0 c3 -5
1 -10 -4 -10 -6 0 -11 5 -11 10 0 6 2 10 4 10 3 0 8 -4 11 -10z m834 -20 c-35
-9 -34 -29 2 -42 28 -10 30 -12 14 -18 -12 -4 -26 0 -39 12 -11 10 -23 18 -27
18 -16 0 -18 33 -3 45 13 9 24 9 46 1 28 -10 28 -11 7 -16z m3615 15 c3 -8 1
-15 -4 -15 -6 0 -10 7 -10 15 0 8 2 15 4 15 2 0 6 -7 10 -15z m-3434 -9 c0 -3
-4 -8 -10 -11 -5 -3 -10 -1 -10 4 0 6 5 11 10 11 6 0 10 -2 10 -4z m-993 -28
c-3 -8 -6 -5 -6 6 -1 11 2 17 5 13 3 -3 4 -12 1 -19z m893 -24 c0 -35 -27 -30
-32 6 -3 17 -2 32 0 35 10 10 32 -18 32 -41z m-386 30 c23 -9 20 -23 -4 -17
-11 3 -20 9 -20 14 0 11 3 11 24 3z m559 -14 c7 -28 -28 -35 -73 -16 l-35 15
37 1 c20 0 40 5 43 10 10 16 22 12 28 -10z m-1012 0 c5 0 9 -4 9 -10 0 -14
-13 -12 -36 6 -17 14 -17 15 -1 10 10 -3 23 -6 28 -6z m653 -40 c8 -9 1 -10
-26 -5 -26 5 -38 4 -38 -4 0 -7 -4 -9 -10 -6 -5 3 -10 13 -10 22 0 12 7 14 37
10 20 -4 41 -11 47 -17z m4242 -5 c-3 -9 -11 -13 -16 -10 -8 5 -7 11 1 21 14
18 24 11 15 -11z m-4398 3 c-3 -7 -13 -15 -24 -17 -16 -3 -17 -1 -5 13 16 19
34 21 29 4z m-648 -43 c0 -8 -4 -15 -10 -15 -5 0 -7 7 -4 15 4 8 8 15 10 15 2
0 4 -7 4 -15z m765 5 c-3 -5 -10 -10 -16 -10 -5 0 -9 5 -9 10 0 6 7 10 16 10
8 0 12 -4 9 -10z m85 -10 c9 -16 8 -20 -5 -20 -8 0 -15 6 -15 14 0 8 -6 17
-12 19 -8 3 -6 6 4 6 10 1 22 -8 28 -19z m255 10 c-3 -5 -10 -10 -16 -10 -5 0
-9 5 -9 10 0 6 7 10 16 10 8 0 12 -4 9 -10z m-305 -20 c0 -5 -2 -10 -4 -10 -3
0 -8 5 -11 10 -3 6 -1 10 4 10 6 0 11 -4 11 -10z m186 -18 c-22 -5 -30 3 -21
18 5 8 11 7 22 -2 15 -12 14 -13 -1 -16z m-252 -22 c-10 -4 -23 -5 -27 -3 -4
3 -14 -1 -22 -7 -12 -10 -15 -9 -15 3 0 10 11 17 33 19 39 4 58 -3 31 -12z
m469 0 c6 -25 -29 -48 -46 -31 -7 7 -5 12 6 17 9 3 17 12 17 20 0 21 17 17 23
-6z m-243 -10 c0 -5 -4 -10 -10 -10 -5 0 -10 5 -10 10 0 6 5 10 10 10 6 0 10
-4 10 -10z m-810 -10 c0 -5 -4 -10 -10 -10 -5 0 -10 5 -10 10 0 6 5 10 10 10
6 0 10 -4 10 -10z m644 -42 c6 -25 4 -28 -21 -28 -25 1 -26 2 -11 14 11 8 15
20 11 37 -4 16 -2 21 4 14 6 -5 13 -22 17 -37z m3746 22 c0 -5 -2 -10 -4 -10
-3 0 -8 5 -11 10 -3 6 -1 10 4 10 6 0 11 -4 11 -10z m-3472 -18 c2 -7 -3 -12
-12 -12 -9 0 -16 7 -16 16 0 17 22 14 28 -4z m-164 -11 c3 -5 -1 -12 -10 -15
-20 -8 -29 -1 -19 13 8 13 22 14 29 2z m4933 -63 c-2 -13 -4 -5 -4 17 -1 22 1
32 4 23 2 -10 2 -28 0 -40z m-4642 22 c-3 -5 -10 -10 -16 -10 -5 0 -9 5 -9 10
0 6 7 10 16 10 8 0 12 -4 9 -10z m-95 -35 c0 -9 -9 -15 -25 -15 -16 0 -25 -6
-25 -16 0 -8 -4 -12 -10 -9 -11 7 -14 48 -2 42 4 -3 16 -1 27 4 30 11 35 11
35 -6z m400 -5 c11 -11 20 -26 20 -34 0 -8 6 -16 13 -19 6 -2 9 -8 5 -12 -5
-5 -16 2 -27 13 -24 29 -31 28 -31 -4 0 -14 -4 -23 -10 -19 -11 7 -14 78 -3
88 9 10 11 9 33 -13z m-530 -45 c0 -17 -2 -18 -15 -4 -9 9 -13 23 -9 33 5 14
9 15 15 4 5 -7 9 -22 9 -33z m160 20 c0 -8 -4 -15 -10 -15 -5 0 -10 7 -10 15
0 8 5 15 10 15 6 0 10 -7 10 -15z m-210 -9 c0 -3 -4 -8 -10 -11 -5 -3 -10 -1
-10 4 0 6 5 11 10 11 6 0 10 -2 10 -4z m467 -11 c8 -9 16 -30 17 -47 1 -26 -3
-33 -26 -39 -20 -5 -28 -4 -28 6 0 8 7 11 20 8 16 -4 20 0 20 20 0 14 -7 32
-15 41 -8 8 -15 17 -15 20 0 10 11 6 27 -9z m-1327 -5 c0 -5 -4 -10 -10 -10
-5 0 -10 5 -10 10 0 6 5 10 10 10 6 0 10 -4 10 -10z m1100 0 c0 -5 -7 -10 -16
-10 -8 0 -12 5 -9 10 3 6 10 10 16 10 5 0 9 -4 9 -10z m3442 -66 c-16 -29 -25
18 -10 52 l12 29 4 -32 c2 -18 -1 -40 -6 -49z m-3547 56 c3 -5 -1 -10 -10 -10
-9 0 -13 5 -10 10 3 6 8 10 10 10 2 0 7 -4 10 -10z m-1016 -42 c-10 -19 -29
-25 -29 -8 0 6 -7 10 -15 10 -32 0 -13 15 19 16 31 0 34 -2 25 -18z m1531 -3
c17 -32 9 -61 -15 -57 -11 2 -23 9 -27 15 -5 8 -8 5 -8 -6 0 -10 -4 -15 -10
-12 -20 12 -10 35 15 35 16 0 25 6 25 15 0 8 -9 15 -20 15 -11 0 -20 4 -20 9
0 19 48 8 60 -14z m-785 5 c3 -5 1 -10 -4 -10 -6 0 -11 5 -11 10 0 6 2 10 4
10 3 0 8 -4 11 -10z m710 0 c3 -5 1 -10 -4 -10 -6 0 -11 5 -11 10 0 6 2 10 4
10 3 0 8 -4 11 -10z m3202 -62 c-3 -7 -5 -2 -5 12 0 14 2 19 5 13 2 -7 2 -19
0 -25z m-3780 16 c-3 -3 -12 -4 -19 -1 -8 3 -5 6 6 6 11 1 17 -2 13 -5z m783
-23 c12 -24 13 -51 2 -51 -9 0 -32 44 -32 60 0 17 19 11 30 -9z m-970 -1 c0
-5 -5 -10 -11 -10 -5 0 -7 5 -4 10 3 6 8 10 11 10 2 0 4 -4 4 -10z m760 -21
c0 -6 4 -8 9 -4 17 10 21 -12 6 -25 -10 -9 -15 -9 -15 -1 0 17 -31 13 -46 -6
-12 -17 -13 -17 -12 2 0 11 -3 29 -7 39 -6 13 -5 17 3 12 6 -3 13 -2 17 4 7
12 45 -5 45 -21z m-1340 -1 c0 -13 -32 -6 -37 9 -3 7 3 9 16 6 12 -3 21 -10
21 -15z m-79 -21 c-4 -12 -6 -28 -4 -34 5 -13 -9 -18 -19 -7 -9 8 14 74 23 68
5 -2 5 -15 0 -27z m2689 26 c-8 -3 -24 -10 -35 -16 -18 -9 -19 -9 -6 6 7 10
23 17 35 16 14 0 16 -2 6 -6z m-1830 -13 c0 -5 -5 -10 -11 -10 -5 0 -7 5 -4
10 3 6 8 10 11 10 2 0 4 -4 4 -10z m435 -30 c-4 -13 -2 -20 7 -20 20 0 22 -84
2 -101 -17 -14 -44 -21 -44 -12 0 3 11 16 25 29 22 20 23 26 14 53 -6 17 -17
31 -25 31 -12 0 -12 4 -4 20 6 11 15 20 21 20 6 0 8 -9 4 -20z m-1235 -10 c0
-5 -2 -10 -4 -10 -3 0 -8 5 -11 10 -3 6 -1 10 4 10 6 0 11 -4 11 -10z m1410 0
c0 -5 -4 -10 -10 -10 -5 0 -10 5 -10 10 0 6 5 10 10 10 6 0 10 -4 10 -10z
m-1610 -10 c0 -5 -6 -10 -14 -10 -8 0 -18 5 -21 10 -3 6 3 10 14 10 12 0 21
-4 21 -10z m1800 -32 c0 -4 -13 -2 -30 3 -29 11 -36 20 -24 32 7 7 53 -24 54
-35z m-226 11 c-3 -5 -10 -7 -15 -3 -5 3 -7 10 -3 15 3 5 10 7 15 3 5 -3 7
-10 3 -15z m54 -18 c2 -31 -14 -42 -50 -33 -27 6 -22 22 7 22 18 0 25 5 25 20
0 31 15 23 18 -9z m196 13 c3 -8 2 -12 -4 -9 -6 3 -10 10 -10 16 0 14 7 11 14
-7z m736 6 c-20 -13 -33 -13 -25 0 3 6 14 10 23 10 15 0 15 -2 2 -10z m-1600
-20 c0 -5 -4 -10 -10 -10 -5 0 -10 5 -10 10 0 6 5 10 10 10 6 0 10 -4 10 -10z
m590 2 c0 -13 -12 -22 -22 -16 -10 6 -1 24 13 24 5 0 9 -4 9 -8z m-1345 -12
c19 -8 19 -9 -2 -9 -12 -1 -25 4 -28 9 -7 12 2 12 30 0z m1593 -14 c3 -12 -1
-17 -10 -14 -7 3 -15 13 -16 22 -3 12 1 17 10 14 7 -3 15 -13 16 -22z m2869
-8 c-3 -7 -5 -2 -5 12 0 14 2 19 5 13 2 -7 2 -19 0 -25z m-2835 -33 c6 -28 -3
-32 -22 -10 -13 16 -6 50 9 41 5 -3 11 -17 13 -31z m435 19 c-3 -3 -12 -4 -19
-1 -8 3 -5 6 6 6 11 1 17 -2 13 -5z m-1902 -14 c3 -5 1 -10 -4 -10 -6 0 -11 5
-11 10 0 6 2 10 4 10 3 0 8 -4 11 -10z m790 0 c-3 -5 -14 -10 -23 -10 -15 0
-15 2 -2 10 20 13 33 13 25 0z m-1021 -18 c3 -5 -8 -9 -24 -9 -17 0 -30 4 -30
9 0 4 11 8 24 8 14 0 27 -4 30 -8z m706 4 c0 -3 -4 -8 -10 -11 -5 -3 -10 -1
-10 4 0 6 5 11 10 11 6 0 10 -2 10 -4z m958 -16 c7 -12 8 -20 2 -20 -5 0 -10
-8 -10 -17 0 -15 -2 -16 -10 -3 -12 18 -13 60 -2 60 4 0 13 -9 20 -20z m-141
-23 c-12 -27 -27 -36 -27 -16 0 6 -11 8 -27 5 -16 -3 -35 -2 -43 4 -8 5 -10
10 -5 11 43 6 62 5 72 -3 8 -6 15 -3 23 12 16 30 22 19 7 -13z m257 17 c3 -8
2 -12 -4 -9 -6 3 -10 10 -10 16 0 14 7 11 14 -7z m-89 -33 c3 -5 1 -12 -5 -16
-5 -3 -10 1 -10 9 0 18 6 21 15 7z m100 -1 c3 -5 1 -10 -4 -10 -6 0 -11 5 -11
10 0 6 2 10 4 10 3 0 8 -4 11 -10z m-1805 -24 c0 -2 -7 -6 -15 -10 -8 -3 -15
-1 -15 4 0 6 7 10 15 10 8 0 15 -2 15 -4z m1535 -6 c-3 -5 -13 -10 -21 -10 -8
0 -14 5 -14 10 0 6 9 10 21 10 11 0 17 -4 14 -10z m330 0 c3 -5 1 -10 -4 -10
-6 0 -11 5 -11 10 0 6 2 10 4 10 3 0 8 -4 11 -10z m-62 -35 c-3 -9 0 -22 6
-29 8 -10 9 -16 1 -21 -5 -3 -10 1 -10 9 0 9 -4 16 -10 16 -11 0 -14 33 -4 43
11 11 23 -3 17 -18z m-1788 5 c3 -5 1 -10 -4 -10 -6 0 -11 5 -11 10 0 6 2 10
4 10 3 0 8 -4 11 -10z m265 -20 c0 -5 -4 -10 -10 -10 -5 0 -10 5 -10 10 0 6 5
10 10 10 6 0 10 -4 10 -10z m1085 -9 c-3 -8 -2 -17 3 -20 5 -3 12 -17 16 -31
8 -27 2 -22 -34 29 -19 27 -55 27 -74 -1 -18 -26 -20 -20 -7 16 9 22 15 24 56
23 34 -2 44 -5 40 -16z m375 7 c0 -16 -31 -21 -45 -7 -12 12 -10 14 15 15 17
1 30 -3 30 -8z m116 -4 c-9 -8 -16 -22 -16 -30 0 -8 -4 -14 -10 -14 -5 0 -10
3 -10 8 0 13 31 52 41 52 6 0 3 -7 -5 -16z m-316 -13 c0 -6 -4 -13 -10 -16 -5
-3 -10 1 -10 9 0 9 5 16 10 16 6 0 10 -4 10 -9z m370 -30 c0 -7 -17 -14 -50
-21 -2 -1 -6 3 -8 8 -1 5 8 13 20 19 24 11 38 8 38 -6z m-236 -7 c18 -17 22
-39 6 -29 -6 4 -17 2 -23 -4 -10 -8 -13 -4 -11 17 2 39 4 40 28 16z m-344 -14
c0 -5 -4 -10 -10 -10 -5 0 -10 5 -10 10 0 6 5 10 10 10 6 0 10 -4 10 -10z
m240 -11 c0 -11 -4 -18 -10 -14 -5 3 -7 12 -3 20 7 21 13 19 13 -6z m220 -3
c0 -3 -4 -8 -10 -11 -5 -3 -10 -1 -10 4 0 6 5 11 10 11 6 0 10 -2 10 -4z
m-180 -16 c0 -5 -4 -10 -10 -10 -5 0 -10 5 -10 10 0 6 5 10 10 10 6 0 10 -4
10 -10z m238 1 c2 -1 -4 -8 -13 -17 -13 -14 -14 -19 -3 -25 10 -7 9 -9 -4 -9
-10 0 -18 3 -18 8 0 4 -3 16 -6 28 -5 17 -1 20 18 18 13 -1 24 -3 26 -3z m27
-1 c3 -5 1 -10 -4 -10 -6 0 -11 5 -11 10 0 6 2 10 4 10 3 0 8 -4 11 -10z
m-355 -9 c0 -5 -7 -12 -16 -15 -8 -3 -12 -10 -9 -16 3 -5 -2 -10 -13 -10 -15
0 -18 5 -14 25 3 18 11 25 28 25 13 0 24 -4 24 -9z m190 -10 c-13 -11 -29 -17
-35 -13 -6 4 -2 8 8 10 9 2 17 8 17 13 0 5 8 9 18 9 14 0 12 -4 -8 -19z m207
-17 c-9 -9 -28 6 -21 18 4 6 10 6 17 -1 6 -6 8 -13 4 -17z m-613 1 c-4 -8 -10
-12 -15 -9 -11 6 -2 24 11 24 5 0 7 -7 4 -15z m46 5 c0 -5 -4 -10 -10 -10 -5
0 -10 5 -10 10 0 6 5 10 10 10 6 0 10 -4 10 -10z m285 0 c-3 -5 -10 -10 -16
-10 -5 0 -9 5 -9 10 0 6 7 10 16 10 8 0 12 -4 9 -10z m435 -7 c0 -7 -44 -42
-52 -43 -13 0 -9 19 8 39 14 16 44 19 44 4z m-490 -3 c0 -5 -4 -10 -10 -10 -5
0 -10 5 -10 10 0 6 5 10 10 10 6 0 10 -4 10 -10z m285 -20 c-10 -11 -21 -17
-24 -14 -3 3 3 12 13 20 28 20 32 17 11 -6z m-185 0 c0 -5 -5 -10 -11 -10 -5
0 -7 5 -4 10 3 6 8 10 11 10 2 0 4 -4 4 -10z m63 -9 c-3 -11 -11 -22 -19 -25
-17 -7 -18 -1 -2 24 16 25 28 26 21 1z m-233 -22 c0 -10 -4 -19 -10 -19 -5 0
-10 12 -10 26 0 14 4 23 10 19 6 -3 10 -15 10 -26z m430 16 c0 -8 -4 -15 -10
-15 -5 0 -10 7 -10 15 0 8 5 15 10 15 6 0 10 -7 10 -15z m-35 -5 c3 -5 -1 -10
-9 -10 -9 0 -16 5 -16 10 0 6 4 10 9 10 6 0 13 -4 16 -10z m-3944 -12 c2 -21
-3 -43 -10 -48 -4 -3 -11 -28 -17 -57 -9 -45 -8 -53 8 -64 18 -13 24 -30 11
-28 -20 3 -23 -2 -8 -17 9 -9 13 -24 10 -34 -3 -10 -1 -21 5 -25 6 -3 7 -11 4
-17 -4 -6 0 -14 7 -19 11 -7 10 -9 -3 -9 -21 0 -21 -1 -8 -35 7 -19 7 -24 -2
-19 -8 5 -9 2 -5 -10 4 -9 3 -15 -1 -12 -4 3 -13 -4 -20 -15 -10 -16 -9 -19 3
-19 18 0 19 -12 4 -27 -7 -7 -13 -24 -15 -40 -3 -15 -6 -39 -8 -53 -2 -14 2
-28 8 -33 8 -5 6 -10 -5 -17 -8 -5 -21 -27 -29 -50 -7 -22 -19 -40 -25 -40 -7
0 -12 -12 -12 -27 1 -29 -10 -141 -18 -183 -2 -14 -7 -47 -10 -75 -3 -27 -7
-63 -10 -80 -7 -40 -63 -165 -85 -190 -10 -11 -30 -42 -46 -70 -15 -27 -40
-66 -56 -85 -15 -19 -28 -39 -28 -44 0 -5 -23 -55 -50 -112 -28 -57 -50 -107
-49 -111 4 -23 -3 -45 -19 -61 -10 -10 -19 -25 -19 -33 0 -8 -12 -44 -26 -81
-15 -36 -27 -75 -27 -86 0 -10 -9 -29 -20 -42 -11 -13 -20 -31 -20 -41 0 -10
-4 -21 -10 -24 -5 -3 -10 -19 -10 -34 0 -16 -7 -34 -15 -41 -8 -7 -15 -21 -15
-31 0 -10 -9 -24 -20 -31 -25 -16 -65 -82 -74 -123 -11 -46 -61 -128 -88 -144
-23 -13 -29 -11 -100 37 -41 29 -80 52 -84 52 -5 0 -17 8 -26 18 -38 38 -64
60 -88 72 -60 31 -213 165 -281 247 -98 117 -267 285 -335 333 -20 14 -62 49
-157 131 -55 47 -152 119 -191 142 -17 11 -40 27 -51 36 -18 16 -40 30 -120
78 -11 7 -29 16 -40 22 -40 18 -77 59 -100 109 -13 27 -21 53 -17 56 3 3 0 6
-6 6 -7 0 -12 6 -12 14 0 8 -7 16 -15 20 -22 8 1 43 34 49 31 6 53 -2 44 -16
-4 -7 2 -8 18 -2 13 4 38 7 55 6 18 0 39 8 52 20 19 17 25 17 24 -1 0 -3 18
-5 41 -5 23 -1 55 -4 70 -8 22 -6 27 -5 22 5 -4 7 -1 6 7 -3 7 -9 31 -22 53
-29 22 -7 49 -19 60 -26 22 -16 39 -18 31 -5 -4 5 3 7 15 4 11 -3 23 -12 26
-19 3 -8 9 -12 14 -9 4 3 22 -8 38 -25 26 -28 34 -31 67 -25 50 7 128 -20 145
-52 l13 -23 27 26 c19 18 35 25 48 21 12 -3 23 -1 26 4 3 4 16 5 28 0 35 -13
72 -7 69 13 -2 9 4 16 14 16 12 0 15 6 10 24 -4 18 -1 25 14 29 11 3 20 13 20
22 0 9 5 13 10 10 20 -12 20 21 1 58 -10 21 -21 33 -23 28 -1 -5 -15 4 -29 20
-23 24 -24 29 -9 29 22 0 33 49 17 69 -9 11 -9 15 1 18 6 3 12 10 12 17 0 16
78 89 88 82 4 -2 16 2 27 10 16 12 17 14 2 14 -9 0 -17 6 -17 14 0 8 -3 22 -7
31 -5 15 -3 16 15 6 11 -6 27 -11 34 -10 7 0 4 4 -7 9 -23 9 -10 17 40 23 30
3 26 7 -21 22 -12 4 -14 8 -5 19 13 15 5 26 -21 26 -10 0 -18 5 -18 11 0 7 10
9 25 5 17 -4 25 -2 25 6 1 8 6 6 14 -4 7 -10 18 -18 24 -18 6 0 13 -6 15 -12
3 -8 6 -6 6 5 1 9 8 17 18 17 14 0 14 2 -2 20 -10 11 -21 18 -24 16 -12 -8
-101 15 -96 24 3 5 20 4 38 -1 17 -5 45 -9 61 -9 28 0 28 1 11 13 -13 10 -15
16 -6 21 9 6 9 11 0 22 -10 12 -9 13 4 8 23 -8 61 14 48 29 -10 13 -11 17 -11
42 0 9 -9 15 -25 15 -23 0 -25 2 -14 21 6 12 9 34 7 50 -5 30 6 39 48 39 26 0
30 -10 12 -28 -9 -9 -7 -12 10 -12 12 0 26 9 32 20 10 18 7 22 -24 35 -19 8
-37 19 -40 24 -9 15 14 25 27 12 16 -16 37 -14 31 4 -4 9 0 15 10 15 9 0 16
-8 16 -20 0 -15 7 -20 25 -20 24 0 25 2 19 35 -4 23 -2 35 5 35 6 0 11 -7 11
-15 0 -17 16 -20 25 -4 5 6 27 8 61 3 30 -3 54 -3 54 1 0 18 -23 46 -38 44
-30 -3 -42 1 -42 12 0 5 4 8 8 5 5 -3 19 2 31 11 17 11 20 18 11 23 -7 4 -9
13 -6 19 10 16 36 14 42 -4 4 -8 11 -12 17 -8 15 9 60 10 80 0 12 -5 23 -3 33
8 21 21 104 21 104 0 0 -17 -23 -20 -51 -5 -13 7 -19 7 -19 0 0 -5 5 -10 12
-10 6 0 8 -3 5 -7 -4 -3 -2 -12 4 -19 8 -10 5 -15 -16 -20 -24 -6 -25 -8 -11
-22 8 -9 30 -16 48 -17 18 -1 41 -5 51 -10 12 -5 23 -1 38 16 11 13 31 25 45
27 14 1 37 15 50 30 22 23 24 24 14 5 -6 -13 -7 -23 -3 -24 29 -4 62 6 91 28
18 13 40 23 50 22 25 -3 53 10 85 39 15 14 27 23 27 19 0 -4 11 -2 25 3 16 6
34 6 50 0 15 -6 27 -6 30 0 3 5 12 7 20 3 8 -3 15 0 15 6 0 15 30 14 31 -1z
m2119 -8 c8 -5 12 -11 10 -14 -3 -2 -14 2 -24 10 -22 15 -10 19 14 4z m1510 6
c0 -3 -4 -8 -10 -11 -5 -3 -10 -1 -10 4 0 6 5 11 10 11 6 0 10 -2 10 -4z
m-1350 -10 c0 -3 -4 -8 -10 -11 -5 -3 -10 -1 -10 4 0 6 5 11 10 11 6 0 10 -2
10 -4z m920 -6 c-20 -13 -43 -13 -35 0 3 6 16 10 28 10 18 0 19 -2 7 -10z
m130 0 c0 -5 -2 -10 -4 -10 -3 0 -8 5 -11 10 -3 6 -1 10 4 10 6 0 11 -4 11
-10z m-4430 -20 c0 -5 -5 -10 -11 -10 -5 0 -7 5 -4 10 3 6 8 10 11 10 2 0 4
-4 4 -10z m4990 0 c0 -5 -12 -10 -27 -9 l-28 1 25 8 c14 4 26 8 28 9 1 1 2 -3
2 -9z m50 -9 c0 -12 -20 -25 -27 -18 -7 7 6 27 18 27 5 0 9 -4 9 -9z m133 -5
c18 -14 24 -32 7 -21 -6 4 -17 2 -25 -5 -13 -11 -17 -8 -28 23 -8 21 19 23 46
3z m-4558 -6 c3 -5 -1 -10 -10 -10 -9 0 -13 5 -10 10 3 6 8 10 10 10 2 0 7 -4
10 -10z m4670 -10 c3 -5 1 -10 -4 -10 -6 0 -11 5 -11 10 0 6 2 10 4 10 3 0 8
-4 11 -10z m-5205 -21 c0 -5 9 -9 20 -9 11 0 20 -4 20 -10 0 -5 -9 -10 -20
-10 -11 0 -20 4 -20 9 0 5 -9 11 -21 14 -12 3 -18 10 -15 16 7 12 36 4 36 -10z
m5002 -1 c17 -20 17 -23 3 -31 -23 -13 -77 -18 -70 -7 4 6 15 10 25 10 28 0
35 19 14 35 -13 10 -15 14 -5 15 7 0 22 -10 33 -22z m138 5 c0 -5 -5 -15 -10
-23 -8 -12 -10 -11 -10 8 0 12 5 22 10 22 6 0 10 -3 10 -7z m-830 -13 c0 -5
-5 -10 -11 -10 -5 0 -7 5 -4 10 3 6 8 10 11 10 2 0 4 -4 4 -10z m-1895 -14
c18 -13 18 -14 -8 -9 -15 3 -30 9 -33 14 -8 14 20 10 41 -5z m2135 -22 c0 -14
-4 -23 -10 -19 -5 3 -10 15 -10 26 0 10 5 19 10 19 6 0 10 -12 10 -26z m143
-1 c-7 -3 -13 -14 -13 -25 0 -12 -3 -19 -6 -15 -3 3 -3 20 1 37 5 25 10 29 19
20 8 -10 8 -14 -1 -17z m-353 13 c0 -3 -4 -8 -10 -11 -5 -3 -10 -1 -10 4 0 6
5 11 10 11 6 0 10 -2 10 -4z m285 -16 c-3 -5 -11 -10 -16 -10 -6 0 -7 5 -4 10
3 6 11 10 16 10 6 0 7 -4 4 -10z m565 -16 c0 -11 -5 -14 -16 -10 -9 3 -24 6
-35 6 -10 0 -19 5 -19 10 0 6 16 10 35 10 25 0 35 -4 35 -16z m80 0 c0 -8 -4
-12 -10 -9 -5 3 -10 10 -10 16 0 5 5 9 10 9 6 0 10 -7 10 -16z m-1080 -4 c0
-5 -5 -10 -11 -10 -5 0 -7 5 -4 10 3 6 8 10 11 10 2 0 4 -4 4 -10z m550 -24
c0 -3 -4 -8 -10 -11 -5 -3 -10 -1 -10 4 0 6 5 11 10 11 6 0 10 -2 10 -4z
m-118 -28 c-6 -6 -15 -8 -19 -4 -4 4 -1 11 7 16 19 12 27 3 12 -12z m378 1 c0
-6 6 -9 12 -7 13 5 43 -19 43 -33 0 -4 3 -11 8 -15 4 -4 7 -20 7 -35 0 -22 -6
-30 -26 -35 -17 -4 -29 -2 -35 7 -6 10 -2 15 16 17 33 4 32 27 -4 63 -35 34
-46 36 -63 9 -20 -31 -30 -23 -13 10 15 29 55 43 55 19z m165 1 c16 -7 17 -9
3 -9 -9 -1 -22 -9 -27 -18 -6 -10 -11 -13 -11 -6 0 6 -3 18 -6 27 -7 18 9 20
41 6z m75 0 c0 -5 -4 -10 -10 -10 -5 0 -10 5 -10 10 0 6 5 10 10 10 6 0 10 -4
10 -10z m-520 -15 c0 -8 -4 -15 -10 -15 -5 0 -7 7 -4 15 4 8 8 15 10 15 2 0 4
-7 4 -15z m-550 1 c0 -3 -4 -8 -10 -11 -5 -3 -10 -1 -10 4 0 6 5 11 10 11 6 0
10 -2 10 -4z m1031 -23 c-8 -15 -10 -15 -11 -2 0 17 10 32 18 25 2 -3 -1 -13
-7 -23z m-931 2 c0 -8 -4 -15 -10 -15 -5 0 -7 7 -4 15 4 8 8 15 10 15 2 0 4
-7 4 -15z m740 -25 c0 -5 -4 -10 -10 -10 -5 0 -10 5 -10 10 0 6 5 10 10 10 6
0 10 -4 10 -10z m-50 -10 c0 -5 -5 -10 -11 -10 -5 0 -7 5 -4 10 3 6 8 10 11
10 2 0 4 -4 4 -10z m-237 -13 c4 3 7 1 7 -5 0 -7 -9 -12 -20 -12 -11 0 -20 -4
-20 -10 0 -5 -4 -10 -10 -10 -14 0 -12 38 3 43 6 2 17 0 23 -4 6 -5 14 -6 17
-2z m467 3 c0 -5 -4 -10 -10 -10 -5 0 -10 5 -10 10 0 6 5 10 10 10 6 0 10 -4
10 -10z m50 0 c-20 -13 -33 -13 -25 0 3 6 14 10 23 10 15 0 15 -2 2 -10z
m-255 -19 c-3 -6 -11 -11 -17 -11 -6 0 -6 6 2 15 14 17 26 13 15 -4z m-855
-17 c0 -2 -7 -4 -15 -4 -8 0 -15 4 -15 10 0 5 7 7 15 4 8 -4 15 -8 15 -10z
m35 -24 c-3 -5 -11 -10 -16 -10 -6 0 -7 5 -4 10 3 6 11 10 16 10 6 0 7 -4 4
-10z m765 -9 c0 -5 -6 -14 -14 -20 -12 -10 -13 -8 -9 8 5 21 23 30 23 12z m53
-4 c4 3 7 -2 7 -12 0 -13 -3 -15 -13 -6 -8 6 -17 8 -20 4 -4 -3 -7 2 -7 12 0
13 3 15 13 6 8 -6 17 -8 20 -4z m214 0 c3 -4 -2 -7 -11 -7 -14 0 -17 -7 -14
-37 2 -24 -2 -38 -11 -41 -10 -3 -13 2 -9 22 3 17 1 26 -7 26 -8 0 -10 9 -8
24 4 19 11 24 29 22 13 -2 27 -6 31 -9z m43 -1 c0 -3 -4 -8 -10 -11 -5 -3 -10
-1 -10 4 0 6 5 11 10 11 6 0 10 -2 10 -4z m-5345 -74 c-3 -3 -5 0 -5 6 0 7 -7
12 -16 12 -14 0 -14 2 -3 16 12 14 14 13 21 -7 5 -12 6 -24 3 -27z m5394 2
c-5 -7 -20 -14 -32 -17 l-22 -6 23 16 c12 8 22 23 22 32 0 14 2 14 10 1 5 -9
5 -19 -1 -26z m-369 16 c-8 -5 -22 -10 -30 -10 -13 0 -13 1 0 10 8 5 22 10 30
10 13 0 13 -1 0 -10z m-5085 -30 c0 -8 -6 -15 -12 -14 -7 1 -21 2 -31 3 -10 0
-26 7 -37 14 -16 12 -12 14 31 13 36 -1 49 -5 49 -16z m5095 -15 c-7 -9 -15
-13 -18 -10 -3 2 1 11 8 20 7 9 15 13 18 10 3 -2 -1 -11 -8 -20z m90 1 c0 -3
-4 -8 -10 -11 -5 -3 -10 -1 -10 4 0 6 5 11 10 11 6 0 10 -2 10 -4z m420 -10
c0 -8 -7 -16 -15 -20 -13 -4 -14 -2 -5 14 13 23 20 26 20 6z m80 -28 c0 -19
-2 -20 -10 -8 -13 19 -13 30 0 30 6 0 10 -10 10 -22z m-513 6 c-3 -3 -12 -4
-19 -1 -8 3 -5 6 6 6 11 1 17 -2 13 -5z m440 -26 c-3 -8 -6 -5 -6 6 -1 11 2
17 5 13 3 -3 4 -12 1 -19z m-577 2 c0 -6 -6 -13 -14 -16 -9 -3 -12 -13 -9 -22
5 -13 3 -14 -6 -6 -10 9 -10 16 1 33 14 22 28 28 28 11z m320 -10 c0 -5 -5
-10 -11 -10 -5 0 -7 5 -4 10 3 6 8 10 11 10 2 0 4 -4 4 -10z m261 -43 c-11
-11 -41 -3 -41 11 0 5 12 7 26 4 17 -3 22 -8 15 -15z m-1521 -61 c0 -3 -4 -8
-10 -11 -5 -3 -10 -1 -10 4 0 6 5 11 10 11 6 0 10 -2 10 -4z m1670 -26 c0 -5
-7 -10 -15 -10 -9 0 -12 -6 -8 -17 5 -14 3 -16 -7 -6 -7 6 -10 19 -7 27 7 17
37 22 37 6z m-197 -21 c-7 -7 -19 -8 -30 -4 -16 7 -15 9 7 15 30 8 38 4 23
-11z m257 -19 c0 -5 -5 -10 -11 -10 -5 0 -7 5 -4 10 3 6 8 10 11 10 2 0 4 -4
4 -10z m-1218 -22 c-7 -7 -12 -8 -12 -2 0 14 12 26 19 19 2 -3 -1 -11 -7 -17z
m522 -13 c-7 -16 -24 -21 -24 -6 0 8 7 13 27 20 1 1 0 -6 -3 -14z m646 -11 c0
-8 -5 -12 -10 -9 -6 4 -8 11 -5 16 9 14 15 11 15 -7z m-1470 -4 c0 -5 -4 -10
-10 -10 -5 0 -10 5 -10 10 0 6 5 10 10 10 6 0 10 -4 10 -10z m-633 -16 c-3 -3
-12 -4 -19 -1 -8 3 -5 6 6 6 11 1 17 -2 13 -5z m1996 -26 c-13 -26 -18 -29
-21 -15 -4 19 14 47 29 47 5 0 2 -15 -8 -32z m57 22 c0 -5 -5 -10 -11 -10 -5
0 -7 5 -4 10 3 6 8 10 11 10 2 0 4 -4 4 -10z m-250 -54 c0 -3 -4 -8 -10 -11
-5 -3 -10 -1 -10 4 0 6 5 11 10 11 6 0 10 -2 10 -4z m297 -28 c-3 -7 -5 -2 -5
12 0 14 2 19 5 13 2 -7 2 -19 0 -25z m-743 7 c-4 -8 -8 -15 -10 -15 -2 0 -4 7
-4 15 0 8 4 15 10 15 5 0 7 -7 4 -15z m521 5 c-3 -5 -11 -10 -16 -10 -6 0 -7
5 -4 10 3 6 11 10 16 10 6 0 7 -4 4 -10z m-55 -25 c0 -8 -2 -15 -4 -15 -2 0
-6 7 -10 15 -3 8 -1 15 4 15 6 0 10 -7 10 -15z m280 -16 c0 -5 -14 -9 -31 -9
-16 0 -28 3 -26 8 7 10 57 12 57 1z m-880 -14 c0 -8 -2 -15 -4 -15 -2 0 -6 7
-10 15 -3 8 -1 15 4 15 6 0 10 -7 10 -15z m830 -34 c0 -11 -31 -24 -39 -16 -3
3 1 10 9 15 19 12 30 12 30 1z m190 -2 c0 -5 -5 -7 -10 -4 -6 3 -14 -4 -19
-17 -10 -23 -10 -22 -10 5 -1 21 4 27 19 27 11 0 20 -5 20 -11z m-163 -41 c-3
-8 -6 -5 -6 6 -1 11 2 17 5 13 3 -3 4 -12 1 -19z m-7017 -62 c-1 -6 -10 0 -20
13 -11 13 -20 28 -20 35 1 6 10 0 20 -13 11 -13 20 -28 20 -35z m6930 44 c0
-5 -2 -10 -4 -10 -3 0 -8 5 -11 10 -3 6 -1 10 4 10 6 0 11 -4 11 -10z m120 0
c0 -5 -4 -10 -10 -10 -5 0 -10 5 -10 10 0 6 5 10 10 10 6 0 10 -4 10 -10z
m-6030 -20 c0 -5 -4 -10 -10 -10 -5 0 -10 5 -10 10 0 6 5 10 10 10 6 0 10 -4
10 -10z m5700 -4 c0 -3 -4 -8 -10 -11 -5 -3 -10 -1 -10 4 0 6 5 11 10 11 6 0
10 -2 10 -4z m-200 -16 c0 -5 -2 -10 -4 -10 -3 0 -8 5 -11 10 -3 6 -1 10 4 10
6 0 11 -4 11 -10z m227 -12 c-3 -8 -6 -5 -6 6 -1 11 2 17 5 13 3 -3 4 -12 1
-19z m203 12 c0 -5 -5 -10 -11 -10 -5 0 -7 5 -4 10 3 6 8 10 11 10 2 0 4 -4 4
-10z m50 0 c0 -5 -2 -10 -4 -10 -3 0 -8 5 -11 10 -3 6 -1 10 4 10 6 0 11 -4
11 -10z m252 -12 c-12 -12 -35 -1 -27 12 3 5 13 6 21 3 10 -4 12 -9 6 -15z
m-6247 -48 c-3 -5 -12 -10 -18 -10 -7 0 -6 4 3 10 19 12 23 12 15 0z m6082
-12 c-3 -8 -6 -5 -6 6 -1 11 2 17 5 13 3 -3 4 -12 1 -19z m-217 -8 c0 -5 -5
-10 -11 -10 -5 0 -7 5 -4 10 3 6 8 10 11 10 2 0 4 -4 4 -10z m280 -20 c0 -5
-2 -10 -4 -10 -3 0 -8 5 -11 10 -3 6 -1 10 4 10 6 0 11 -4 11 -10z m70 1 c0
-5 -9 -7 -20 -4 -11 3 -20 7 -20 9 0 2 9 4 20 4 11 0 20 -4 20 -9z m-510 -26
c-7 -8 -18 -15 -24 -15 -6 0 -2 7 8 15 25 19 32 19 16 0z m445 -15 c3 -5 2
-10 -4 -10 -5 0 -13 5 -16 10 -3 6 -2 10 4 10 5 0 13 -4 16 -10z m-2155 -10
c0 -5 -4 -10 -10 -10 -5 0 -10 5 -10 10 0 6 5 10 10 10 6 0 10 -4 10 -10z
m1920 -14 c0 -3 -4 -8 -10 -11 -5 -3 -10 -1 -10 4 0 6 5 11 10 11 6 0 10 -2
10 -4z m245 -16 c-3 -5 -11 -10 -16 -10 -6 0 -7 5 -4 10 3 6 11 10 16 10 6 0
7 -4 4 -10z m-125 -40 c-24 -15 -37 -11 -16 5 11 8 22 12 25 9 3 -3 -1 -9 -9
-14z m460 -60 c0 -5 -4 -10 -10 -10 -5 0 -10 5 -10 10 0 6 5 10 10 10 6 0 10
-4 10 -10z m-70 -180 c0 -5 -5 -10 -11 -10 -5 0 -7 5 -4 10 3 6 8 10 11 10 2
0 4 -4 4 -10z m240 -190 c0 -5 -4 -10 -9 -10 -6 0 -13 5 -16 10 -3 6 1 10 9
10 9 0 16 -4 16 -10z m-80 -61 c0 -5 -4 -9 -10 -9 -5 0 -10 7 -10 16 0 8 5 12
10 9 6 -3 10 -10 10 -16z m80 -689 c0 -5 -4 -10 -10 -10 -5 0 -10 5 -10 10 0
6 5 10 10 10 6 0 10 -4 10 -10z m2680 -738 c0 -18 -5 -29 -14 -29 -10 0 -12 5
-7 16 5 9 6 22 4 29 -3 6 0 12 6 12 6 0 11 -13 11 -28z"/>
<path d="M3546 11902 c-13 -15 -14 -25 -7 -45 7 -17 7 -28 1 -32 -6 -4 -10 -1
-10 6 0 7 -2 10 -4 8 -7 -7 14 -122 28 -159 24 -60 29 -75 28 -82 -1 -5 3 -8
8 -8 6 0 10 -8 10 -19 0 -18 45 -71 61 -71 5 0 9 -7 9 -15 0 -8 5 -15 10 -15
6 0 10 -6 10 -12 0 -7 14 -26 30 -42 17 -16 30 -33 30 -38 0 -5 5 -6 10 -3 6
3 10 1 10 -4 0 -6 6 -11 14 -11 8 0 16 -7 20 -15 8 -21 40 -19 61 5 10 11 14
20 9 20 -5 0 -11 12 -12 28 -1 15 -8 29 -15 31 -16 5 -107 100 -107 112 0 12
-60 109 -82 133 -10 11 -18 27 -18 35 0 9 -7 25 -15 35 -11 15 -12 22 -4 27 8
5 3 16 -15 33 -17 18 -26 38 -26 59 0 48 -13 62 -34 39z"/>
<path d="M4080 11429 c0 -5 5 -7 10 -4 6 3 10 8 10 11 0 2 -4 4 -10 4 -5 0
-10 -5 -10 -11z"/>
<path d="M3992 11351 c-56 -52 -55 -78 2 -113 24 -16 48 -28 54 -28 6 0 12 -4
14 -9 2 -4 19 -11 39 -15 28 -5 38 -3 43 9 3 9 0 15 -8 15 -9 0 -12 7 -9 20 6
24 -31 102 -65 136 -13 13 -24 24 -25 24 -2 0 -22 -18 -45 -39z"/>
<path d="M13820 8925 c0 -5 5 -17 10 -25 5 -8 10 -10 10 -5 0 6 -5 17 -10 25
-5 8 -10 11 -10 5z"/>
<path d="M14391 8869 c0 -13 4 -33 8 -44 7 -17 8 -17 15 8 4 18 12 27 23 25 9
-2 18 3 20 10 3 7 -4 12 -15 12 -11 0 -27 3 -36 6 -12 5 -16 0 -15 -17z"/>
<path d="M13833 8853 c1 -21 5 -29 11 -23 6 6 5 18 -2 32 -10 22 -11 21 -9 -9z"/>
<path d="M13840 8767 c0 -25 4 -49 10 -52 6 -4 8 12 4 42 -7 63 -14 68 -14 10z"/>
<path d="M9827 8710 c3 -11 12 -20 19 -20 17 0 18 12 2 28 -18 18 -27 15 -21
-8z"/>
<path d="M6286 7581 c-8 -12 27 -49 41 -44 20 7 -5 52 -29 53 -4 0 -9 -4 -12
-9z"/>
<path d="M6412 7551 c2 -7 7 -12 11 -12 12 1 9 15 -3 20 -7 2 -11 -2 -8 -8z"/>
<path d="M6355 7490 c3 -5 8 -10 11 -10 2 0 4 5 4 10 0 6 -5 10 -11 10 -5 0
-7 -4 -4 -10z"/>
<path d="M5995 7339 c-10 -15 3 -25 16 -12 7 7 7 13 1 17 -6 3 -14 1 -17 -5z"/>
<path d="M6040 7326 c0 -8 7 -19 16 -27 13 -10 17 -10 24 1 4 7 6 18 4 24 -6
16 -44 17 -44 2z"/>
<path d="M6050 7246 c0 -9 5 -16 10 -16 6 0 10 4 10 9 0 6 -4 13 -10 16 -5 3
-10 -1 -10 -9z"/>
<path d="M6073 7188 c6 -42 -12 -53 -33 -20 -10 15 -11 15 -6 0 6 -21 -19 -45
-28 -26 -3 7 -4 3 -2 -9 2 -13 0 -26 -5 -29 -5 -3 -9 -11 -9 -17 0 -7 4 -6 10
3 9 13 10 13 10 0 0 -9 -5 -21 -11 -27 -7 -7 -3 -9 15 -6 29 6 31 14 15 45
-10 19 -9 20 24 14 35 -6 36 -6 42 28 5 25 2 41 -10 58 -17 23 -17 23 -12 -14z"/>
<path d="M6168 7213 c7 -3 16 -2 19 1 4 3 -2 6 -13 5 -11 0 -14 -3 -6 -6z"/>
<path d="M7158 17433 c6 -2 18 -2 25 0 6 3 1 5 -13 5 -14 0 -19 -2 -12 -5z"/>
<path d="M5190 17395 c-7 -9 -11 -18 -8 -20 3 -3 11 1 18 10 7 9 11 18 8 20
-3 3 -11 -1 -18 -10z"/>
<path d="M5590 17400 c0 -5 4 -10 9 -10 6 0 13 5 16 10 3 6 -1 10 -9 10 -9 0
-16 -4 -16 -10z"/>
<path d="M4180 17295 c0 -9 6 -12 15 -9 8 4 15 10 15 15 0 5 -7 9 -15 9 -8 0
-15 -7 -15 -15z"/>
<path d="M4230 17280 c8 -5 20 -10 25 -10 6 0 3 5 -5 10 -8 5 -19 10 -25 10
-5 0 -3 -5 5 -10z"/>
<path d="M4311 17263 c-7 -8 -11 -16 -8 -19 2 -2 10 2 17 11 17 20 9 27 -9 8z"/>
<path d="M7740 17025 c-46 -17 -57 -24 -38 -25 15 0 30 5 33 10 3 6 17 10 29
10 13 0 29 7 36 15 7 8 11 15 9 14 -2 0 -33 -11 -69 -24z"/>
<path d="M8213 16823 c9 -2 23 -2 30 0 6 3 -1 5 -18 5 -16 0 -22 -2 -12 -5z"/>
<path d="M2745 16690 c-4 -6 8 -10 29 -10 20 0 36 5 36 10 0 6 -13 10 -29 10
-17 0 -33 -4 -36 -10z"/>
<path d="M8342 16395 c0 -16 2 -22 5 -12 2 9 2 23 0 30 -3 6 -5 -1 -5 -18z"/>
<path d="M8361 16274 c0 -11 3 -14 6 -6 3 7 2 16 -1 19 -3 4 -6 -2 -5 -13z"/>
<path d="M8330 16135 c-7 -8 -22 -15 -34 -16 -20 0 -20 -1 2 -10 15 -5 30 -5
41 1 10 5 22 6 26 2 4 -4 2 3 -4 16 -14 26 -15 26 -31 7z"/>
<path d="M2210 16040 c-6 -12 -9 -24 -7 -27 3 -2 11 5 17 17 6 12 9 24 7 27
-3 2 -11 -5 -17 -17z"/>
<path d="M8342 16028 c7 -13 14 -25 15 -27 1 -1 6 0 12 4 15 9 -5 45 -24 45
-13 0 -13 -4 -3 -22z"/>
<path d="M8362 15800 c0 -14 2 -19 5 -12 2 6 2 18 0 25 -3 6 -5 1 -5 -13z"/>
<path d="M8370 15751 c0 -5 5 -13 10 -16 6 -3 10 -2 10 4 0 5 -4 13 -10 16 -5
3 -10 2 -10 -4z"/>
<path d="M8395 15680 c3 -5 8 -10 11 -10 2 0 4 5 4 10 0 6 -5 10 -11 10 -5 0
-7 -4 -4 -10z"/>
<path d="M8104 15119 c-8 -14 -3 -18 35 -29 25 -7 33 -6 38 6 7 19 5 20 -34
27 -18 4 -35 2 -39 -4z"/>
<path d="M8182 15054 c10 -10 20 -15 24 -12 3 4 -5 12 -18 18 -22 12 -22 12
-6 -6z"/>
<path d="M6395 14250 c3 -5 8 -10 11 -10 2 0 4 5 4 10 0 6 -5 10 -11 10 -5 0
-7 -4 -4 -10z"/>
<path d="M7746 13682 c-3 -6 -27 -13 -53 -17 -27 -4 -82 -25 -123 -48 -100
-56 -141 -69 -225 -72 -38 -1 -77 -5 -85 -8 -8 -3 -39 -11 -68 -17 -29 -7 -58
-18 -65 -24 -7 -7 -24 -15 -37 -19 -58 -14 -127 -42 -157 -63 -17 -13 -36 -24
-42 -24 -14 0 -14 -17 -1 -25 6 -3 10 -22 10 -41 0 -25 4 -34 17 -34 9 0 79
-7 157 -16 104 -12 145 -13 158 -5 10 6 25 11 34 11 10 0 42 7 73 16 31 9 73
21 94 27 21 6 42 17 46 25 7 13 20 11 87 -14 69 -25 92 -29 186 -29 59 1 106
-2 106 -5 -3 -34 4 -60 17 -60 10 0 14 -7 11 -22 -3 -13 -5 -29 -5 -35 -1 -7
-9 -13 -18 -14 -16 0 -15 -2 2 -10 15 -7 10 -8 -22 -5 -29 3 -46 -1 -54 -10
-7 -8 -19 -14 -28 -13 -9 1 -18 0 -21 -1 -3 -1 -18 -4 -35 -6 -16 -3 -54 -12
-84 -20 -29 -8 -56 -13 -58 -10 -3 3 -18 -1 -32 -8 -14 -8 -41 -20 -58 -26
-18 -7 -33 -17 -33 -22 0 -5 -4 -7 -9 -3 -5 3 -12 1 -15 -3 -3 -5 -17 -7 -31
-5 -17 4 -27 0 -31 -11 -3 -9 -16 -16 -29 -16 -13 0 -26 -7 -29 -16 -3 -8 -10
-13 -15 -10 -5 3 -11 0 -14 -8 -3 -8 -20 -17 -37 -21 -17 -4 -34 -13 -37 -21
-3 -8 -16 -14 -29 -14 -13 0 -24 -6 -24 -12 0 -9 -4 -8 -11 2 -8 12 -9 11 -7
-5 1 -11 -7 -30 -19 -42 -13 -13 -20 -29 -17 -37 9 -23 55 -10 159 43 100 51
116 58 230 97 44 15 85 31 90 35 20 15 101 37 153 42 45 3 56 1 80 -20 15 -13
40 -27 55 -30 15 -3 26 -11 24 -17 -4 -12 -88 -46 -130 -52 -15 -2 -37 -9 -48
-15 -44 -23 -196 -69 -231 -69 -20 0 -49 -5 -65 -11 -15 -6 -40 -11 -55 -11
-16 0 -28 -4 -28 -9 0 -6 -8 -9 -17 -8 -26 3 -83 -21 -83 -35 0 -19 39 -56 60
-56 10 0 31 5 47 11 15 6 41 13 57 16 29 5 58 16 86 32 39 23 71 33 111 35 31
2 45 7 47 18 2 9 17 18 35 21 18 3 51 9 74 12 50 9 73 -5 73 -42 0 -13 4 -22
9 -18 5 3 17 -2 26 -12 16 -16 16 -18 -9 -39 -33 -29 -35 -80 -3 -172 23 -70
34 -85 55 -77 7 3 11 1 8 -4 -6 -10 44 -33 65 -31 8 2 31 2 52 1 29 -1 40 -6
47 -23 7 -18 9 -19 9 -5 1 15 5 16 21 7 17 -9 22 -7 32 15 11 25 6 77 -17 192
-9 43 22 80 53 64 27 -15 45 -14 39 2 -4 13 19 88 31 97 16 12 31 50 26 65 -4
8 -1 15 6 15 7 0 10 7 6 16 -4 9 1 25 9 34 13 14 14 26 6 62 -11 45 4 112 27
127 7 4 8 12 2 21 -6 8 -10 20 -10 25 0 6 5 3 10 -5 6 -10 10 -11 10 -2 0 7
13 12 29 12 29 0 61 22 61 41 0 20 29 39 59 39 17 0 31 4 31 9 0 5 10 11 23
13 12 2 21 9 19 17 -2 8 2 17 8 21 6 4 8 14 4 23 -3 9 -9 15 -13 12 -4 -2 -8
12 -9 31 -1 21 3 32 9 29 8 -6 7 32 -1 55 -1 3 -1 15 0 27 2 25 -49 82 -67 76
-7 -2 -13 8 -15 24 -2 23 -8 28 -33 30 -47 2 -89 15 -100 30 -10 14 -19 15
-86 12 -19 0 -57 6 -84 16 -30 10 -59 13 -75 9 -14 -4 -47 -9 -75 -10 -27 -2
-53 -3 -57 -3 -5 -1 -8 -7 -8 -15 0 -15 -37 -32 -47 -22 -4 3 -1 6 5 6 13 0
17 29 5 31 -5 1 -31 2 -58 4 -28 1 -60 5 -72 9 -12 4 -24 3 -27 -2z m252
-1135 c2 -11 -3 -17 -16 -17 -26 0 -34 11 -20 27 14 17 32 12 36 -10z"/>
<path d="M7497 13643 c-13 -13 -7 -32 8 -27 8 4 15 12 15 20 0 15 -12 19 -23
7z"/>
<path d="M7441 13625 c-1 -13 19 -35 31 -35 4 0 8 5 8 10 0 6 -6 10 -14 10 -8
0 -17 6 -19 13 -3 6 -6 7 -6 2z"/>
<path d="M9014 13302 c-28 -19 -33 -26 -24 -38 10 -11 6 -20 -14 -45 -15 -18
-25 -38 -22 -45 3 -8 2 -14 -2 -14 -4 0 -16 -28 -26 -63 -10 -34 -23 -68 -29
-74 -15 -20 0 -45 23 -38 11 4 20 2 20 -4 0 -6 -6 -11 -12 -12 -51 -3 -78 -25
-78 -62 0 -16 5 -18 29 -14 17 4 36 0 48 -8 11 -8 23 -12 26 -9 3 3 3 -4 0
-17 -4 -16 -3 -20 6 -15 8 5 12 33 10 84 -2 66 0 76 17 83 10 3 22 5 26 3 4
-3 9 0 13 6 3 5 15 10 25 10 25 0 62 36 83 82 21 44 21 58 2 94 -8 16 -15 42
-15 58 0 25 -2 27 -17 15 -11 -10 -14 -10 -9 -1 4 7 2 12 -4 12 -6 0 -9 8 -6
18 9 26 -28 23 -70 -6z"/>
<path d="M9162 13185 c0 -16 2 -22 5 -12 2 9 2 23 0 30 -3 6 -5 -1 -5 -18z"/>
<path d="M8944 12715 c-10 -8 -27 -15 -36 -15 -10 0 -18 -4 -18 -9 0 -5 -13
-12 -30 -16 -16 -4 -30 -11 -30 -15 0 -5 14 -25 30 -43 17 -19 30 -41 30 -48
1 -23 28 -52 40 -44 8 5 10 21 7 41 -5 30 -1 37 31 64 20 16 42 30 49 30 7 0
13 5 13 11 0 7 12 9 35 5 31 -6 35 -5 35 15 0 17 -4 20 -23 15 -14 -3 -32 1
-43 9 -25 19 -65 19 -90 0z"/>
<path d="M9148 12683 c7 -3 16 -2 19 1 4 3 -2 6 -13 5 -11 0 -14 -3 -6 -6z"/>
<path d="M5625 12570 c-3 -5 -1 -10 4 -10 6 0 11 5 11 10 0 6 -2 10 -4 10 -3
0 -8 -4 -11 -10z"/>
<path d="M9035 11455 c-65 -17 -124 -45 -185 -87 -40 -29 -13 -40 107 -43 59
-1 116 -6 125 -10 19 -8 32 -35 17 -35 -6 0 -8 -4 -5 -8 3 -5 -6 -15 -20 -22
-27 -15 -28 -46 -1 -44 9 1 17 -3 17 -8 0 -10 125 55 150 79 13 12 13 13 -2 7
-24 -8 -23 1 2 26 12 12 18 25 14 31 -3 6 -8 25 -11 42 -7 44 -26 63 -78 76
-52 13 -65 13 -130 -4z"/>
<path d="M8680 11306 c0 -2 8 -10 18 -17 15 -13 16 -12 3 4 -13 16 -21 21 -21
13z"/>
<path d="M6031 11174 c0 -11 3 -14 6 -6 3 7 2 16 -1 19 -3 4 -6 -2 -5 -13z"/>
<path d="M8875 11088 c-22 -5 -55 -12 -74 -15 -21 -3 -35 -12 -38 -24 -3 -11
-9 -20 -14 -20 -5 -1 -12 -2 -16 -3 -61 -14 -90 -19 -97 -17 -5 1 -6 -5 -3
-13 8 -20 -27 -39 -54 -31 -13 5 -31 -2 -54 -19 -18 -14 -41 -26 -50 -26 -9 0
-26 -5 -38 -12 -12 -6 -31 -12 -42 -12 -11 -1 -21 -5 -22 -9 -3 -10 -59 -48
-95 -64 -20 -9 -28 -20 -28 -38 0 -16 -6 -25 -16 -25 -22 0 -67 -48 -84 -90
-8 -19 -20 -39 -27 -43 -7 -5 -11 -12 -8 -16 2 -5 -5 -11 -16 -14 -12 -3 -18
-10 -14 -16 3 -6 2 -11 -3 -11 -9 0 -39 -69 -35 -82 2 -4 0 -8 -5 -8 -4 0 -8
-10 -9 -22 -4 -55 -9 -84 -15 -94 -4 -5 -10 -35 -13 -65 -4 -30 -15 -75 -26
-101 -10 -26 -19 -54 -19 -62 0 -9 -8 -25 -17 -35 -18 -21 -53 -107 -53 -130
0 -8 -8 -23 -17 -34 -17 -18 -17 -19 2 -30 21 -12 83 -10 100 3 6 4 27 10 47
13 28 4 52 21 102 71 36 36 70 66 75 66 5 0 13 9 16 20 4 11 18 27 33 34 15 8
44 31 65 50 20 20 41 36 46 36 5 0 16 19 26 43 9 23 25 51 35 62 10 11 21 30
24 42 4 12 19 31 34 41 30 20 210 67 317 82 39 5 95 14 125 20 30 5 74 9 98 8
32 -1 48 4 67 22 14 13 23 25 22 27 -6 5 -72 -20 -78 -30 -14 -21 -27 6 -31
65 -5 61 -4 65 33 112 29 36 37 54 33 71 -3 13 -3 33 1 45 6 19 11 20 68 14
49 -4 67 -11 85 -31 20 -22 21 -27 9 -42 -9 -10 -12 -23 -7 -36 4 -12 2 -30
-6 -45 -7 -14 -16 -42 -19 -62 -3 -21 -11 -38 -16 -38 -17 0 -6 -42 14 -54 14
-8 20 -8 27 4 10 15 10 12 -4 -77 -3 -16 -8 -36 -11 -45 -4 -10 -3 -18 3 -18
12 0 23 40 27 92 2 21 8 53 15 73 6 19 8 44 5 55 -4 12 0 36 9 54 12 25 13 41
6 66 -11 40 -7 50 21 43 14 -4 19 -12 16 -25 -3 -11 2 -22 14 -28 17 -10 19
-7 18 27 -1 21 -8 77 -17 126 -12 64 -13 90 -5 98 9 9 15 3 26 -23 8 -20 20
-38 25 -42 23 -14 -30 75 -55 91 -14 10 -44 34 -65 54 -21 20 -38 33 -38 29 0
-11 -127 -12 -148 -1 -22 12 -105 31 -129 30 -10 -1 -36 -6 -58 -11z"/>
<path d="M6780 10400 c-12 -7 -10 -9 7 -7 12 0 19 5 17 9 -6 10 -6 10 -24 -2z"/>
<path d="M3110 10171 c0 -10 29 -36 34 -30 1 2 -6 12 -16 22 -10 9 -18 13 -18
8z"/>
<path d="M8900 10123 c-14 -9 -34 -24 -45 -34 -11 -9 -32 -19 -47 -23 -28 -6
-39 -25 -15 -27 6 -1 1 -4 -12 -8 l-24 -6 27 -32 c15 -18 25 -37 21 -43 -3 -5
-1 -10 4 -10 6 0 11 -7 11 -15 0 -17 16 -20 25 -5 4 7 11 7 18 2 7 -5 26 -9
42 -10 39 -1 75 -12 75 -23 0 -15 57 -10 70 5 7 9 10 39 8 78 -3 65 -2 67 42
57 19 -5 14 42 -6 54 -8 4 -14 16 -14 26 0 23 -27 31 -100 30 -33 0 -65 -6
-80 -16z"/>
<path d="M3438 10023 c7 -3 16 -2 19 1 4 3 -2 6 -13 5 -11 0 -14 -3 -6 -6z"/>
<path d="M3367 9807 c-3 -8 -1 -20 4 -28 6 -10 9 -7 9 14 0 29 -5 35 -13 14z"/>
<path d="M3460 9800 c0 -12 28 -21 35 -11 2 5 -4 11 -15 14 -11 3 -20 2 -20
-3z"/>
<path d="M3247 9781 c-4 -17 -3 -21 5 -13 5 5 8 16 6 23 -3 8 -7 3 -11 -10z"/>
<path d="M13335 9525 c59 -17 73 -19 60 -6 -6 5 -32 12 -60 15 l-50 6 50 -15z"/>
<path d="M13220 9495 c33 -19 50 -18 26 0 -11 8 -27 15 -35 15 -10 -1 -7 -6 9
-15z"/>
<path d="M13420 9503 c1 -16 73 -54 83 -44 6 6 -5 17 -31 30 -45 23 -52 25
-52 14z"/>
<path d="M13300 9456 c0 -3 9 -10 20 -16 11 -6 20 -8 20 -6 0 3 -9 10 -20 16
-11 6 -20 8 -20 6z"/>
<path d="M14338 9423 c7 -3 16 -2 19 1 4 3 -2 6 -13 5 -11 0 -14 -3 -6 -6z"/>
<path d="M13560 9400 c0 -5 5 -10 10 -10 6 0 10 5 10 10 0 6 -4 10 -10 10 -5
0 -10 -4 -10 -10z"/>
<path d="M13420 9350 c0 -5 14 -24 31 -42 32 -34 33 -32 10 14 -14 27 -41 46
-41 28z"/>
<path d="M12370 9290 c0 -5 5 -10 10 -10 6 0 10 5 10 10 0 6 -4 10 -10 10 -5
0 -10 -4 -10 -10z"/>
<path d="M12540 9276 c-14 -8 -28 -12 -33 -9 -5 3 -11 -5 -14 -17 -4 -16 -8
-18 -14 -8 -7 10 -9 10 -9 -3 0 -10 -10 -15 -34 -16 -26 -1 -33 3 -29 13 5 14
-12 20 -19 7 -1 -5 -16 -15 -33 -24 -16 -8 -30 -22 -29 -30 1 -9 -9 -16 -24
-17 -18 -1 -23 2 -18 13 4 11 -2 15 -20 15 -14 0 -23 4 -19 9 3 5 1 12 -4 15
-5 4 -12 2 -16 -4 -7 -12 -55 -14 -55 -2 0 4 5 13 11 19 8 8 5 14 -11 23 -22
12 -22 11 -17 -26 3 -22 3 -31 0 -21 -3 14 -11 17 -26 13 -12 -3 -25 -6 -29
-6 -8 0 -4 -38 7 -64 6 -13 5 -21 -4 -24 -20 -7 8 -32 36 -32 13 0 22 4 19 8
-2 4 -1 14 5 22 7 13 9 13 10 0 1 -8 5 -1 9 15 7 28 8 28 15 8 4 -13 12 -19
21 -16 8 3 14 -1 14 -11 0 -9 7 -19 15 -22 19 -8 19 -19 -1 -39 -12 -11 -20
-13 -29 -5 -8 7 -15 7 -19 1 -9 -14 4 -40 25 -52 11 -5 19 -18 19 -28 0 -17
38 -37 49 -26 2 3 -1 5 -7 5 -7 0 -12 5 -12 11 0 5 4 8 9 5 5 -3 11 3 14 14 3
13 10 18 21 14 11 -4 16 -1 16 10 0 9 5 16 10 16 13 0 13 -6 0 -30 -12 -22 8
-41 45 -44 25 -1 31 -7 18 -19 -3 -4 -12 -2 -19 4 -7 6 -19 9 -26 6 -8 -3 -6
-6 6 -6 12 -1 16 -6 13 -16 -5 -11 0 -13 23 -8 16 3 37 2 47 -2 27 -12 37 -12
48 2 8 10 19 10 48 2 20 -5 41 -8 46 -4 13 7 42 -5 35 -16 -3 -5 2 -9 10 -9
10 0 13 6 10 15 -7 17 11 21 21 5 3 -5 15 -10 26 -10 21 0 26 -16 7 -23 -10
-4 -10 -6 -1 -6 6 -1 14 3 17 8 3 5 16 7 27 4 32 -9 19 19 -16 36 -25 12 -26
14 -10 24 13 7 24 6 37 -2 15 -9 23 -9 33 -1 11 9 14 6 18 -12 l4 -23 2 23 c1
24 11 28 28 11 7 -7 23 -9 40 -4 27 6 27 7 9 21 -17 12 -18 14 -3 14 22 0 21
17 -3 67 -13 28 -18 52 -14 73 6 26 3 32 -15 37 -11 3 -21 8 -21 12 0 3 -9 12
-21 19 -12 8 -18 9 -15 3 4 -5 2 -12 -4 -16 -6 -3 -13 0 -16 8 -4 12 -12 13
-36 6 -32 -9 -63 4 -52 22 3 5 -5 9 -18 9 -32 0 -44 11 -45 39 -3 41 -38 52
-83 27z m254 -234 c0 -11 4 -20 8 -19 5 1 21 -13 35 -30 14 -18 20 -33 14 -33
-6 0 -11 4 -11 9 0 5 -11 9 -25 9 -32 0 -31 -2 -38 50 -4 30 -2 42 6 39 7 -2
12 -13 11 -25z"/>
<path d="M13661 9260 c6 -16 15 -30 20 -30 12 0 11 17 -1 41 -17 30 -30 22
-19 -11z"/>
<path d="M11422 9246 c-19 -19 -22 -27 -13 -43 5 -11 6 -24 2 -29 -13 -14 -25
-57 -14 -51 5 3 9 -8 8 -26 0 -18 5 -42 13 -54 7 -12 13 -24 13 -27 -3 -17 0
-26 7 -24 11 4 72 -26 72 -34 0 -15 19 -8 40 14 19 20 20 20 20 3 0 -14 3 -16
11 -8 6 6 18 9 26 6 11 -4 12 3 7 37 -6 38 -5 43 9 37 12 -4 17 -1 17 11 0 10
5 23 12 30 8 8 8 15 -2 27 -7 8 -9 15 -4 15 5 0 4 4 -1 8 -6 4 -15 20 -20 37
-6 17 -19 31 -30 34 -19 3 -19 3 -2 -16 32 -36 15 -47 -20 -13 -18 16 -23 17
-33 5 -14 -17 -5 -35 18 -36 12 0 10 -3 -6 -10 -26 -10 -63 3 -43 15 14 9 15
43 1 51 -17 11 -32 -5 -20 -20 8 -10 6 -15 -10 -20 -30 -9 -51 12 -29 28 13
10 14 15 4 24 -7 7 -16 9 -21 5 -4 -4 0 5 9 21 21 33 11 34 -21 3z"/>
<path d="M14393 9259 c14 -8 22 -8 30 0 8 8 3 11 -18 11 -26 -1 -28 -2 -12
-11z"/>
<path d="M14450 9260 c0 -5 5 -10 10 -10 6 0 10 5 10 10 0 6 -4 10 -10 10 -5
0 -10 -4 -10 -10z"/>
<path d="M14035 9250 c-3 -5 1 -10 9 -10 9 0 16 5 16 10 0 6 -4 10 -9 10 -6 0
-13 -4 -16 -10z"/>
<path d="M10710 9223 c0 -8 -6 -13 -12 -12 -29 3 -59 -14 -52 -30 14 -35 16
-51 5 -51 -6 0 -11 -7 -11 -15 0 -10 -10 -15 -30 -15 l-30 0 20 -20 c11 -11
24 -20 28 -20 26 0 79 80 67 100 -3 5 1 12 9 17 7 4 16 17 19 28 4 18 5 18 6
-2 1 -18 7 -23 30 -23 17 0 31 6 35 16 5 13 1 15 -18 10 -18 -4 -25 -1 -28 12
-6 22 -38 25 -38 5z"/>
<path d="M10880 9206 c0 -17 -9 -28 -30 -38 -31 -13 -39 -32 -17 -42 6 -3 2
-3 -10 0 -13 3 -23 1 -23 -4 0 -16 42 -22 56 -8 7 8 10 16 7 20 -4 3 -1 6 6 6
6 0 16 -12 21 -26 7 -16 16 -24 24 -21 8 3 17 -1 21 -10 4 -11 9 -13 16 -6 7
7 24 7 50 2 36 -8 43 -7 59 13 13 16 15 25 7 30 -9 5 -9 10 0 19 9 9 15 3 27
-25 8 -20 22 -39 30 -42 8 -3 17 -16 20 -30 4 -13 11 -24 16 -24 6 0 10 -7 10
-15 0 -20 5 -19 36 10 15 14 33 25 40 25 7 0 20 7 28 16 15 14 16 14 16 0 0
-9 4 -16 8 -16 5 0 16 -18 25 -40 11 -29 20 -38 31 -34 9 3 16 2 16 -4 0 -6
-6 -13 -12 -15 -8 -4 -7 -6 3 -6 9 -1 19 6 23 14 3 8 10 15 16 15 6 0 8 -5 4
-12 -5 -8 -2 -9 9 -5 10 3 17 2 17 -3 0 -6 6 -10 13 -10 23 1 -35 40 -62 41
l-26 1 25 8 25 8 -25 2 c-24 2 -23 3 5 10 29 7 29 8 4 9 -43 2 -62 23 -54 59
3 18 12 32 18 32 7 0 6 4 -3 10 -10 6 -11 10 -2 10 6 0 12 8 12 18 0 10 -3 13
-8 6 -4 -5 -25 -10 -47 -10 l-40 0 24 24 c19 20 21 26 10 33 -22 14 -29 11
-29 -13 0 -19 -1 -20 -12 -6 -16 20 -58 7 -58 -17 0 -19 -16 -20 -23 -1 -4 10
-22 14 -61 14 -33 0 -63 5 -73 13 -11 9 -14 10 -9 2 4 -7 3 -13 -3 -13 -5 0
-12 6 -14 13 -4 8 -15 2 -33 -18 l-27 -30 5 27 c6 30 -12 43 -43 33 -14 -5
-17 -2 -13 9 4 11 1 16 -10 16 -10 0 -16 -9 -16 -24z m100 -80 c0 -11 -19 -15
-25 -6 -3 5 1 10 9 10 9 0 16 -2 16 -4z m345 -6 c3 -5 1 -10 -4 -10 -6 0 -11
5 -11 10 0 6 2 10 4 10 3 0 8 -4 11 -10z m-175 -20 c0 -11 -7 -20 -15 -20 -18
0 -19 12 -3 28 16 16 18 15 18 -8z m77 -46 c-3 -3 -12 -4 -19 -1 -8 3 -5 6 6
6 11 1 17 -2 13 -5z m-30 -20 c-3 -3 -12 -4 -19 -1 -8 3 -5 6 6 6 11 1 17 -2
13 -5z"/>
<path d="M11780 9223 c0 -5 5 -15 10 -23 7 -11 14 -12 27 -4 28 17 25 30 -7
32 -16 1 -30 -1 -30 -5z"/>
<path d="M12025 9210 c-3 -5 -1 -10 4 -10 6 0 11 5 11 10 0 6 -2 10 -4 10 -3
0 -8 -4 -11 -10z"/>
<path d="M13276 9203 c-4 -9 -4 -18 -1 -21 3 -3 5 0 5 6 0 7 8 5 20 -5 26 -23
28 -75 3 -67 -13 4 -11 0 6 -15 17 -16 21 -24 13 -34 -8 -9 -5 -19 8 -36 17
-23 19 -24 35 -7 17 16 17 17 -4 23 -21 5 -30 33 -11 33 11 0 1 32 -14 42 -6
4 -5 12 3 22 16 19 8 46 -13 46 -8 0 -21 7 -29 15 -13 13 -16 13 -21 -2z"/>
<path d="M10456 9193 c-6 -14 -5 -15 5 -6 7 7 10 15 7 18 -3 3 -9 -2 -12 -12z"/>
<path d="M11857 9203 c-11 -10 -8 -43 3 -43 6 0 10 11 10 25 0 26 -2 29 -13
18z"/>
<path d="M11972 9190 c-18 -29 -15 -32 17 -25 21 4 30 2 35 -10 8 -21 26 -10
26 16 0 13 -7 19 -23 19 -13 0 -27 4 -33 10 -6 6 -14 3 -22 -10z"/>
<path d="M11721 9176 c-6 -15 -8 -33 -4 -39 4 -7 9 -20 10 -29 3 -22 -36 -35
-48 -17 -6 10 -9 10 -9 2 0 -7 9 -17 21 -23 20 -11 20 -12 2 -25 -10 -8 -26
-15 -35 -15 -21 0 -23 -13 -4 -29 19 -16 49 -2 43 20 -3 12 0 19 9 19 8 0 14
-6 14 -12 0 -9 4 -8 10 2 6 11 23 15 59 14 40 -2 49 0 44 12 -3 10 2 14 18 14
29 -1 57 -21 52 -37 -2 -6 0 -13 4 -16 12 -7 59 30 51 39 -4 4 -14 1 -23 -6
-13 -10 -15 -9 -15 8 0 21 -32 38 -49 27 -6 -3 -16 1 -23 8 -13 14 -43 12 -66
-6 -7 -5 -16 -7 -19 -3 -4 4 -1 11 7 16 13 9 13 10 0 10 -11 0 -12 2 -2 8 9 7
8 13 -8 27 -11 10 -18 21 -15 24 2 4 0 13 -5 21 -7 11 -11 8 -19 -14z"/>
<path d="M13561 9184 c0 -11 3 -14 6 -6 3 7 2 16 -1 19 -3 4 -6 -2 -5 -13z"/>
<path d="M10355 9160 c-4 -6 -1 -10 4 -10 6 0 11 -19 11 -43 0 -24 3 -47 6
-50 10 -9 64 25 64 40 0 19 -34 50 -50 45 -7 -3 -10 0 -6 6 3 5 -1 12 -9 16
-8 3 -17 1 -20 -4z"/>
<path d="M10725 9160 c3 -5 13 -10 21 -10 8 0 12 5 9 10 -3 6 -13 10 -21 10
-8 0 -12 -4 -9 -10z"/>
<path d="M11370 9155 c0 -8 5 -15 10 -15 6 0 10 7 10 15 0 8 -4 15 -10 15 -5
0 -10 -7 -10 -15z"/>
<path d="M9443 9143 c-3 -10 -8 -22 -11 -26 -6 -12 35 11 43 23 4 6 10 8 15 5
5 -3 11 -1 15 5 4 6 -6 10 -25 10 -20 0 -33 -6 -37 -17z"/>
<path d="M9838 9137 c-4 -19 -1 -27 8 -27 15 0 16 6 5 35 -7 17 -8 17 -13 -8z"/>
<path d="M12951 9143 c0 -7 -1 -16 -2 -20 0 -5 -7 -12 -15 -16 -18 -10 -18
-33 0 -40 9 -4 12 -14 9 -27 -3 -12 0 -32 7 -46 11 -19 21 -24 52 -24 24 0 37
-4 33 -10 -3 -5 1 -10 11 -10 14 0 14 3 4 15 -7 9 -10 18 -7 21 3 3 -1 22 -10
41 -10 24 -11 39 -4 46 13 13 -4 47 -24 47 -7 0 -16 6 -18 13 -4 9 -8 9 -15
-2 -8 -11 -11 -10 -15 5 -2 10 -5 13 -6 7z m-1 -53 c0 -5 -4 -10 -10 -10 -5 0
-10 5 -10 10 0 6 5 10 10 10 6 0 10 -4 10 -10z"/>
<path d="M9556 9123 c-3 -3 -3 -10 0 -14 7 -12 34 -11 34 0 0 11 -26 22 -34
14z"/>
<path d="M10750 9120 c0 -5 4 -10 9 -10 6 0 13 5 16 10 3 6 -1 10 -9 10 -9 0
-16 -4 -16 -10z"/>
<path d="M11993 9112 c-14 -23 -5 -72 13 -72 8 0 14 -4 14 -10 0 -5 5 -10 10
-10 6 0 8 13 5 30 -5 27 -3 30 19 28 14 -1 23 -5 20 -9 -11 -18 19 -18 41 -1
l25 20 -27 7 c-15 3 -31 12 -35 18 -6 9 -8 9 -8 0 0 -7 -4 -13 -10 -13 -5 0
-10 7 -10 15 0 8 -5 15 -10 15 -6 0 -13 -7 -16 -15 -4 -8 -10 -15 -15 -15 -4
0 -6 7 -3 15 8 21 1 19 -13 -3z"/>
<path d="M9883 9113 c-6 -2 -9 -13 -6 -23 6 -22 11 -24 32 -11 12 8 12 11 0
23 -8 8 -19 13 -26 11z"/>
<path d="M11950 9099 c0 -11 5 -17 10 -14 6 3 10 13 10 21 0 8 -4 14 -10 14
-5 0 -10 -9 -10 -21z"/>
<path d="M9600 9090 c0 -5 4 -10 9 -10 6 0 13 5 16 10 3 6 -1 10 -9 10 -9 0
-16 -4 -16 -10z"/>
<path d="M9441 9069 c-11 -18 -11 -23 1 -30 19 -12 25 -11 32 6 6 16 -2 45
-13 45 -3 0 -12 -10 -20 -21z"/>
<path d="M9785 9080 c-8 -13 -1 -24 14 -19 6 3 7 10 2 18 -6 10 -10 10 -16 1z"/>
<path d="M10250 9080 c-12 -7 -12 -12 -3 -21 9 -9 16 -9 27 1 26 21 5 39 -24
20z"/>
<path d="M10475 9070 c3 -5 10 -10 16 -10 5 0 9 5 9 10 0 6 -7 10 -16 10 -8 0
-12 -4 -9 -10z"/>
<path d="M10680 9062 c-22 -10 -22 -29 0 -35 11 -3 20 -1 20 3 0 5 3 15 6 24
6 17 -1 19 -26 8z"/>
<path d="M11055 9050 c-7 -12 2 -30 16 -30 5 0 9 9 9 20 0 21 -15 27 -25 10z"/>
<path d="M11925 9000 c-4 -6 -4 -10 -1 -10 2 0 11 -3 20 -6 9 -3 16 -2 16 4 0
14 -28 23 -35 12z"/>
<path d="M12190 8986 c0 -9 5 -16 10 -16 6 0 10 4 10 9 0 6 -4 13 -10 16 -5 3
-10 -1 -10 -9z"/>
<path d="M13220 8990 c0 -5 5 -10 10 -10 6 0 10 5 10 10 0 6 -4 10 -10 10 -5
0 -10 -4 -10 -10z"/>
<path d="M12150 8970 c0 -5 5 -10 11 -10 5 0 7 5 4 10 -3 6 -8 10 -11 10 -2 0
-4 -4 -4 -10z"/>
<path d="M13129 8943 c-12 -15 -12 -16 3 -10 9 3 22 -1 28 -9 7 -8 20 -14 29
-13 10 0 11 2 4 6 -7 2 -13 11 -13 18 0 7 -7 16 -16 19 -21 8 -20 8 -35 -11z"/>
<path d="M9435 8940 c3 -5 8 -10 11 -10 2 0 4 5 4 10 0 6 -5 10 -11 10 -5 0
-7 -4 -4 -10z"/>
<path d="M12985 8920 c-9 -15 -1 -23 21 -18 15 3 16 4 1 16 -11 9 -17 10 -22
2z"/>
<path d="M11980 8900 c0 -5 7 -10 15 -10 8 0 15 5 15 10 0 6 -7 10 -15 10 -8
0 -15 -4 -15 -10z"/>
<path d="M9600 8879 c0 -5 5 -7 10 -4 6 3 10 8 10 11 0 2 -4 4 -10 4 -5 0 -10
-5 -10 -11z"/>
<path d="M13152 8879 c2 -6 8 -10 13 -10 5 0 11 4 13 10 2 6 -4 11 -13 11 -9
0 -15 -5 -13 -11z"/>
<path d="M14942 8850 c0 -19 2 -27 5 -17 2 9 2 25 0 35 -3 9 -5 1 -5 -18z"/>
<path d="M9827 8846 c-8 -19 31 -32 46 -17 9 9 8 14 -3 21 -22 14 -37 12 -43
-4z"/>
<path d="M13200 8838 c0 -18 18 -34 28 -24 3 4 -2 14 -11 23 -16 16 -17 16
-17 1z"/>
<path d="M13355 8800 c-11 -17 5 -32 21 -19 7 6 11 15 8 20 -7 12 -21 11 -29
-1z"/>
<path d="M14953 8770 c0 -25 2 -35 4 -22 2 12 2 32 0 45 -2 12 -4 2 -4 -23z"/>
<path d="M12635 8330 c-3 -6 1 -7 9 -4 18 7 21 14 7 14 -6 0 -13 -4 -16 -10z"/>
<path d="M13025 8310 c-3 -5 -2 -10 4 -10 5 0 18 -3 28 -7 16 -6 16 -5 4 10
-15 19 -27 22 -36 7z"/>
<path d="M15062 6515 c0 -16 2 -22 5 -12 2 9 2 23 0 30 -3 6 -5 -1 -5 -18z"/>
<path d="M15008 6400 c-3 -16 -1 -30 4 -30 4 0 8 14 8 30 0 17 -2 30 -4 30 -2
0 -6 -13 -8 -30z"/>
<path d="M15026 6027 c3 -10 9 -15 12 -12 3 3 0 11 -7 18 -10 9 -11 8 -5 -6z"/>
<path d="M14992 5904 c-7 -8 -8 -14 -3 -14 10 0 25 19 20 25 -2 1 -10 -3 -17
-11z"/>
<path d="M15001 5564 c0 -11 3 -14 6 -6 3 7 2 16 -1 19 -3 4 -6 -2 -5 -13z"/>
<path d="M15121 5454 c0 -11 3 -14 6 -6 3 7 2 16 -1 19 -3 4 -6 -2 -5 -13z"/>
<path d="M15035 5450 c3 -5 8 -10 11 -10 2 0 4 5 4 10 0 6 -5 10 -11 10 -5 0
-7 -4 -4 -10z"/>
<path d="M15132 5390 c6 -23 13 -39 15 -36 7 7 -7 65 -17 71 -4 3 -3 -13 2
-35z"/>
<path d="M15066 5393 c-6 -14 -5 -15 5 -6 7 7 10 15 7 18 -3 3 -9 -2 -12 -12z"/>
<path d="M15080 5311 c0 -5 5 -13 10 -16 6 -3 10 -2 10 4 0 5 -4 13 -10 16 -5
3 -10 2 -10 -4z"/>
<path d="M15305 5290 c-3 -6 1 -7 9 -4 18 7 21 14 7 14 -6 0 -13 -4 -16 -10z"/>
<path d="M14997 5276 c-9 -7 -17 -19 -17 -27 0 -9 3 -9 13 3 6 9 19 18 27 20
7 2 10 7 4 10 -5 4 -17 1 -27 -6z"/>
<path d="M15255 5259 c-11 -16 -1 -19 13 -3 7 8 8 14 3 14 -5 0 -13 -5 -16
-11z"/>
<path d="M15005 5210 c-3 -5 -2 -10 4 -10 5 0 13 5 16 10 3 6 2 10 -4 10 -5 0
-13 -4 -16 -10z"/>
<path d="M15216 5205 c-3 -8 -1 -15 4 -15 6 0 10 7 10 15 0 8 -2 15 -4 15 -2
0 -6 -7 -10 -15z"/>
<path d="M15266 5177 c3 -10 9 -15 12 -12 3 3 0 11 -7 18 -10 9 -11 8 -5 -6z"/>
<path d="M15341 5173 c0 -12 -4 -30 -7 -40 -5 -17 -5 -17 6 0 6 10 9 28 7 40
-4 22 -4 22 -6 0z"/>
<path d="M15015 5130 c3 -5 12 -7 20 -3 21 7 19 13 -6 13 -11 0 -18 -4 -14
-10z"/>
<path d="M15238 5113 c6 -2 18 -2 25 0 6 3 1 5 -13 5 -14 0 -19 -2 -12 -5z"/>
<path d="M15236 5065 c4 -8 1 -22 -6 -30 -11 -13 -10 -14 4 -9 18 7 22 39 6
49 -6 3 -7 -1 -4 -10z"/>
<path d="M14980 5060 c0 -5 5 -10 10 -10 6 0 10 5 10 10 0 6 -4 10 -10 10 -5
0 -10 -4 -10 -10z"/>
<path d="M15191 4994 c0 -11 3 -14 6 -6 3 7 2 16 -1 19 -3 4 -6 -2 -5 -13z"/>
<path d="M15110 4945 c-7 -9 -11 -17 -9 -20 3 -2 10 5 17 15 14 24 10 26 -8 5z"/>
<path d="M15347 4953 c-4 -3 -7 -11 -7 -17 0 -6 5 -5 12 2 6 6 9 14 7 17 -3 3
-9 2 -12 -2z"/>
<path d="M15294 4925 c-9 -14 -15 -27 -13 -30 3 -2 12 10 21 26 21 36 15 39
-8 4z"/>
<path d="M15189 4918 c-5 -16 -3 -58 3 -58 4 0 8 14 8 30 0 17 -2 30 -5 30 -3
0 -5 -1 -6 -2z"/>
<path d="M15110 4888 c0 -9 -6 -19 -12 -21 -10 -4 -10 -6 0 -6 14 -1 28 26 18
36 -3 4 -6 -1 -6 -9z"/>
<path d="M15014 4877 c-3 -10 -4 -21 0 -24 3 -4 6 -2 6 4 0 6 15 -4 34 -23 19
-19 40 -34 48 -34 7 1 1 7 -13 15 -15 8 -36 29 -47 47 -18 28 -22 30 -28 15z"/>
<path d="M15021 4798 c-1 -10 6 -18 14 -18 8 0 15 5 15 11 0 5 -4 8 -9 5 -5
-4 -12 0 -14 6 -3 8 -6 6 -6 -4z"/>
<path d="M15266 4783 c-6 -14 -5 -15 5 -6 7 7 10 15 7 18 -3 3 -9 -2 -12 -12z"/>
<path d="M15087 4776 c3 -4 23 -6 43 -3 21 3 43 0 49 -6 8 -8 11 -7 11 4 0 12
-12 15 -54 15 -30 -1 -52 -5 -49 -10z"/>
<path d="M15275 4740 c3 -5 8 -10 11 -10 2 0 4 5 4 10 0 6 -5 10 -11 10 -5 0
-7 -4 -4 -10z"/>
<path d="M15295 4694 c0 -27 10 -32 18 -10 3 8 0 19 -6 24 -9 8 -12 4 -12 -14z"/>
<path d="M15250 4428 c-12 -22 -12 -22 6 -6 10 10 15 20 12 24 -4 3 -12 -5
-18 -18z"/>
<path d="M15060 4420 c0 -5 -14 -7 -32 -3 -43 8 -33 -2 13 -15 33 -9 36 -8 32
9 -6 20 -13 26 -13 9z"/>
<path d="M15155 4420 c-3 -5 -1 -10 4 -10 6 0 11 5 11 10 0 6 -2 10 -4 10 -3
0 -8 -4 -11 -10z"/>
<path d="M15200 4410 c0 -5 5 -10 11 -10 5 0 7 5 4 10 -3 6 -8 10 -11 10 -2 0
-4 -4 -4 -10z"/>
<path d="M15033 4335 c-8 -9 -9 -16 -3 -20 6 -3 13 1 16 10 9 21 2 26 -13 10z"/>
<path d="M15141 4233 c45 -51 49 -54 49 -48 0 12 -53 75 -63 75 -6 0 0 -12 14
-27z"/>
<path d="M15220 4226 c0 -9 30 -14 35 -6 4 6 -3 10 -14 10 -12 0 -21 -2 -21
-4z"/>
<path d="M15321 4184 c0 -11 3 -14 6 -6 3 7 2 16 -1 19 -3 4 -6 -2 -5 -13z"/>
<path d="M15034 4141 c-10 -25 -9 -37 8 -71 11 -22 21 -40 23 -40 4 0 -2 54
-12 103 l-8 39 -11 -31z"/>
<path d="M15105 4140 c2 -14 5 -28 5 -32 0 -3 9 -4 19 -1 13 3 21 -2 26 -16 7
-23 30 -28 41 -9 5 7 3 8 -5 3 -8 -4 -18 1 -27 14 -8 12 -21 21 -28 21 -7 0
-18 10 -25 23 -11 22 -11 22 -6 -3z"/>
<path d="M15300 4055 c-9 -10 -9 -15 -1 -15 6 0 11 5 11 11 0 7 10 9 26 5 17
-5 23 -3 19 4 -9 15 -41 12 -55 -5z"/>
<path d="M15121 4043 c16 -21 31 -33 41 -33 4 0 -4 11 -18 25 -29 29 -43 33
-23 8z"/>
<path d="M15125 3999 c-16 -6 -16 -8 -3 -8 9 -1 23 -4 32 -7 9 -3 16 -2 16 4
0 15 -22 20 -45 11z"/>
<path d="M15296 3979 c-8 -41 -8 -49 2 -49 4 0 9 18 10 40 3 48 -3 52 -12 9z"/>
<path d="M15057 3986 c-4 -10 -7 -18 -7 -19 0 -1 11 -3 25 -3 14 -1 25 2 25 7
0 5 -6 9 -14 9 -8 0 -16 5 -18 12 -3 7 -7 5 -11 -6z"/>
<path d="M15130 3946 c0 -2 7 -9 15 -16 13 -11 14 -10 9 4 -5 14 -24 23 -24
12z"/>
<path d="M15330 3896 c0 -2 7 -7 16 -10 8 -3 12 -2 9 4 -6 10 -25 14 -25 6z"/>
<path d="M15306 3882 c-3 -3 6 -15 21 -28 35 -30 42 -24 9 9 -14 14 -27 22
-30 19z"/>
<path d="M14990 3865 c0 -9 9 -15 24 -15 13 0 26 -6 29 -12 5 -15 38 0 45 21
3 10 0 10 -16 0 -17 -10 -24 -10 -46 4 -31 21 -36 21 -36 2z"/>
<path d="M15240 3844 c0 -5 11 -22 25 -38 14 -16 25 -24 25 -18 0 6 -11 23
-25 38 -14 15 -25 23 -25 18z"/>
<path d="M15241 3734 c0 -11 3 -14 6 -6 3 7 2 16 -1 19 -3 4 -6 -2 -5 -13z"/>
<path d="M15155 3700 c-3 -5 -1 -10 4 -10 6 0 11 5 11 10 0 6 -2 10 -4 10 -3
0 -8 -4 -11 -10z"/>
<path d="M15230 3651 c0 -5 5 -13 10 -16 6 -3 10 -2 10 4 0 5 -4 13 -10 16 -5
3 -10 2 -10 -4z"/>
<path d="M15090 3576 c0 -9 30 -14 35 -6 4 6 -3 10 -14 10 -12 0 -21 -2 -21
-4z"/>
<path d="M15165 3570 c-3 -5 -2 -10 4 -10 5 0 13 5 16 10 3 6 2 10 -4 10 -5 0
-13 -4 -16 -10z"/>
<path d="M15176 3453 c-6 -14 -5 -15 5 -6 7 7 10 15 7 18 -3 3 -9 -2 -12 -12z"/>
<path d="M15243 3465 c4 -5 -3 -20 -15 -33 l-23 -25 27 19 c31 21 34 30 16 40
-7 4 -10 3 -5 -1z"/>
<path d="M15060 3385 c-14 -8 -34 -15 -45 -16 -11 0 -2 -5 19 -10 43 -10 48
-8 53 21 3 23 5 23 -27 5z"/>
<path d="M15201 3361 c-12 -16 -37 -35 -56 -41 -19 -6 -35 -16 -35 -21 0 -12
1 -12 41 8 29 14 89 67 89 79 0 14 -22 0 -39 -25z"/>
<path d="M15279 3343 c-13 -16 -12 -17 4 -4 16 13 21 21 13 21 -2 0 -10 -8
-17 -17z"/>
<path d="M15338 3333 c7 -3 16 -2 19 1 4 3 -2 6 -13 5 -11 0 -14 -3 -6 -6z"/>
<path d="M15291 3299 c-13 -10 -19 -19 -14 -19 5 0 15 6 21 12 17 17 36 -10
20 -29 -7 -9 -7 -13 0 -13 20 0 44 13 35 19 -5 3 -16 16 -24 27 -14 22 -15 22
-38 3z"/>
<path d="M15245 3140 c3 -5 8 -10 11 -10 2 0 4 5 4 10 0 6 -5 10 -11 10 -5 0
-7 -4 -4 -10z"/>
<path d="M15330 3064 c0 -5 7 -19 15 -30 8 -10 15 -14 15 -8 0 5 -7 19 -15 30
-8 10 -15 14 -15 8z"/>
</g>
</svg>
